<svg width="119" height="141" viewBox="0 0 119 141" fill="none" xmlns="http://www.w3.org/2000/svg">
<path d="M37.195 93.8157C37.195 93.8157 34.4644 116.973 33.0834 122.847C28.7594 125.307 28.5891 131.599 34.4113 131.599C38.9067 131.599 44.0899 131.887 46.1881 130.307C51.7323 126.13 54.8521 96.7372 54.8521 96.7372" fill="white"/>
<path d="M37.2348 93.8048C37.2348 93.8048 34.4555 116.956 33.0621 122.827C28.7329 125.278 28.5493 131.57 34.3715 131.582C38.8669 131.591 44.0494 131.891 46.151 130.314C51.704 126.15 54.8857 96.7635 54.8857 96.7635" fill="#DFE7F2"/>
<path d="M36.855 93.7757C36.4094 96.1822 36.0323 98.5974 35.6723 101.014L34.6399 108.268L34.1238 111.893L33.5996 115.514C33.2367 117.92 32.8902 120.348 32.4168 122.69L32.7448 122.252L32.7442 122.252C31.5505 122.924 30.5308 123.935 29.8917 125.177C29.572 125.797 29.3482 126.476 29.2581 127.187C29.1713 127.896 29.2198 128.645 29.4679 129.354C29.7105 130.061 30.1618 130.716 30.7474 131.188C31.3295 131.668 32.0196 131.964 32.7052 132.133C33.0493 132.217 33.3953 132.27 33.7387 132.299C34.08 132.33 34.4348 132.329 34.7312 132.332L36.5971 132.357C37.8454 132.377 39.1017 132.388 40.3696 132.343C41.638 132.294 42.9185 132.212 44.2233 131.926C44.8743 131.777 45.5373 131.578 46.1858 131.215C46.3474 131.125 46.507 131.018 46.6618 130.905C46.8131 130.789 46.9536 130.666 47.0845 130.54C47.3462 130.286 47.5708 130.017 47.7771 129.743C48.1873 129.194 48.5194 128.621 48.8186 128.041C49.1161 127.461 49.3809 126.873 49.6197 126.278C50.5692 123.901 51.2396 121.468 51.8391 119.027C52.4313 116.585 52.9282 114.127 53.3745 111.664C53.8166 109.199 54.218 106.73 54.5586 104.253C54.6419 103.633 54.724 103.013 54.7902 102.391C54.8626 101.77 54.9255 101.148 54.9793 100.525C55.0878 99.2784 55.1747 98.0316 55.1924 96.7733C55.1951 96.5835 55.0433 96.4274 54.8535 96.4247C54.6856 96.4224 54.5441 96.5408 54.5118 96.6994L54.5116 96.701C53.5115 101.589 52.9186 106.527 51.9798 111.406C51.5197 113.846 51.0098 116.275 50.4095 118.675C49.8038 121.069 49.1241 123.453 48.206 125.702C47.742 126.816 47.2258 127.921 46.5535 128.828C46.3855 129.052 46.2084 129.263 46.0221 129.443C45.8322 129.626 45.6525 129.766 45.4316 129.889C44.9913 130.139 44.45 130.313 43.8882 130.441C42.7552 130.693 41.5357 130.78 40.3156 130.827C39.0915 130.869 37.8537 130.866 36.6089 130.867L34.735 130.867C34.4083 130.87 34.139 130.87 33.859 130.847C33.5813 130.825 33.309 130.785 33.0474 130.722C32.5252 130.596 32.0419 130.384 31.6586 130.07C31.2716 129.76 30.9859 129.35 30.8197 128.88C30.4838 127.935 30.6479 126.788 31.143 125.815C31.6363 124.832 32.4492 124.001 33.4214 123.442L33.4219 123.442C33.5924 123.345 33.7054 123.186 33.7485 123.009L33.7498 123.004C34.042 121.787 34.2726 120.576 34.4846 119.367C34.7047 118.157 34.8885 116.946 35.0782 115.735C35.4439 113.313 35.7685 110.888 36.0808 108.461C36.3818 106.033 36.6803 103.606 36.9339 101.173C37.1848 98.7395 37.403 96.3031 37.5349 93.8559C37.545 93.6667 37.4 93.5051 37.2108 93.4949C37.0366 93.4855 36.8857 93.6085 36.855 93.7757Z" fill="#000072"/>
<path d="M41.4284 123.196C40.5669 122.906 39.7095 122.692 38.8265 122.523C37.9462 122.357 37.0497 122.247 36.1383 122.225C35.2283 122.208 34.2984 122.268 33.3768 122.509C32.4579 122.739 31.5414 123.18 30.793 123.869C30.5147 124.126 30.4969 124.559 30.7533 124.838C31.0096 125.116 31.4431 125.134 31.7213 124.877C31.7316 124.868 31.7416 124.858 31.7511 124.848L31.7565 124.843C32.2679 124.307 32.9465 123.904 33.7125 123.659C34.4744 123.404 35.307 123.29 36.1466 123.252C36.9885 123.217 37.8436 123.264 38.6947 123.369C39.5425 123.473 40.4027 123.631 41.2191 123.848L41.2311 123.851C41.4138 123.9 41.6013 123.791 41.6499 123.608C41.6965 123.433 41.5975 123.253 41.4284 123.196Z" fill="#000072"/>
<path d="M33.3714 126.634C33.1181 127.075 32.9167 127.55 32.7699 128.051C32.6278 128.552 32.537 129.087 32.5878 129.65C32.6374 130.206 32.8479 130.808 33.2656 131.27C33.6719 131.743 34.2209 132.051 34.7657 132.261L34.7753 132.265C35.1308 132.402 35.5299 132.225 35.6668 131.869C35.8036 131.514 35.6265 131.115 35.271 130.978C35.2224 130.959 35.1693 130.946 35.1198 130.938C34.6986 130.879 34.2967 130.76 33.9749 130.528C33.6447 130.304 33.4039 129.948 33.2599 129.519C33.1168 129.09 33.0812 128.6 33.1072 128.11C33.1364 127.618 33.2232 127.119 33.3714 126.634Z" fill="#000072"/>
<path d="M37.7046 126.634C37.4513 127.075 37.2498 127.55 37.1031 128.051C36.961 128.552 36.8702 129.087 36.921 129.65C36.9705 130.206 37.1811 130.808 37.5988 131.27C38.0051 131.743 38.5541 132.051 39.0989 132.261L39.1085 132.265C39.464 132.402 39.8631 132.225 40 131.869C40.1368 131.514 39.9597 131.115 39.6042 130.978C39.5556 130.959 39.5025 130.946 39.453 130.938C39.0318 130.879 38.6299 130.76 38.3081 130.528C37.9778 130.304 37.7371 129.948 37.5931 129.519C37.45 129.09 37.4144 128.6 37.4403 128.11C37.4696 127.618 37.5564 127.119 37.7046 126.634Z" fill="#000072"/>
<path d="M93.9434 130.36C93.9434 130.36 112.471 130.338 112.143 129.561C111.815 128.785 112.488 121.405 103.945 120.34C94.08 119.111 90.1722 116.231 89.0244 114.925C87.8767 113.618 88.4506 125.622 93.9434 130.36Z" fill="white"/>
<path d="M93.7127 130.981L93.9441 130.981C93.9884 130.981 98.4299 130.975 102.873 130.88C112.175 130.681 112.409 130.328 112.656 129.955C112.781 129.766 112.804 129.528 112.716 129.32C112.701 129.265 112.673 128.993 112.65 128.774C112.441 126.775 111.806 120.694 104.022 119.724C93.3821 118.397 90.0511 115.152 89.4914 114.514C89.1734 114.152 88.822 114.192 88.6858 114.226C88.3574 114.308 88.1351 114.582 88.0253 115.042C87.7643 116.136 87.9359 119 88.7679 122.153C89.479 124.848 90.8837 128.541 93.5375 130.83L93.7127 130.981ZM111.445 129.198C109.542 129.535 101.484 129.726 94.1787 129.738C91.6494 127.436 90.3955 123.569 89.8685 121.44C89.2751 119.042 89.1142 116.983 89.1596 115.928C90.6934 117.272 94.7072 119.815 103.868 120.957C110.673 121.805 111.192 126.779 111.414 128.903C111.425 129.012 111.435 129.109 111.445 129.198Z" fill="#000072"/>
<path d="M87.5487 96.6478C96.2089 104.091 87.2205 132.117 80.9427 132.117C75.9427 132.117 67.0438 132.086 60.4425 130.948C53.0744 129.678 22.5371 103.05 42.961 66.0874C47.531 57.8166 69.9223 63.9216 68.7933 77.0522C68.201 83.9406 80.7443 90.7997 87.5487 96.6478Z" fill="white"/>
<path d="M60.4421 130.949C67.0443 132.086 75.9416 132.117 80.943 132.117C83.3612 132.117 86.1829 127.954 88.2421 122.413C91.5275 113.571 92.8716 101.223 87.5479 96.6488C80.7439 90.7984 68.2023 83.9395 68.7944 77.0517C68.8049 76.9259 68.8154 76.8028 68.8206 76.6796C69.4992 63.8052 47.4865 57.8947 42.9619 66.0872C22.5369 103.049 53.0748 129.678 60.4421 130.949Z" fill="white"/>
<path d="M60.4421 130.949C67.0443 132.086 75.9416 132.117 80.943 132.117C83.3612 132.117 86.1829 127.954 88.2421 122.413C74.5085 119.932 44.9531 113.422 44.243 103.22C43.3182 89.9156 56.5541 79.3258 68.1368 76.8762C68.3831 76.8238 68.611 76.7583 68.8206 76.6797C69.4992 63.8053 47.4865 57.8948 42.9619 66.0873C22.5369 103.049 53.0748 129.678 60.4421 130.949Z" fill="#DFE7F2"/>
<path d="M80.9427 132.739C83.5322 132.739 86.4834 128.947 88.8373 122.597C90.6102 117.814 91.6701 112.466 91.7452 107.924C91.8358 102.448 90.5247 98.386 87.9539 96.1764C86.2409 94.7042 84.207 93.1976 82.0537 91.6026C75.9339 87.0692 68.9976 81.9311 69.4126 77.1054C69.7024 73.7351 68.5248 70.537 66.0073 67.8568C63.841 65.5506 60.7296 63.6971 57.246 62.6375C54.2331 61.721 51.1463 61.4661 48.5543 61.9195C45.6572 62.4263 43.535 63.7636 42.4171 65.7868C31.8018 84.9982 35.215 100.779 39.9477 110.635C46.017 123.274 56.2909 130.863 60.337 131.56C67.1733 132.739 76.4733 132.739 80.9427 132.739ZM87.1437 97.1191C90.0261 99.5964 90.5611 104.351 90.5024 107.904C90.4296 112.311 89.3979 117.509 87.6718 122.165C85.6032 127.746 82.899 131.496 80.9427 131.496C76.5078 131.496 67.2796 131.496 60.5481 130.336C56.8341 129.696 46.8706 122.181 41.0681 110.097C36.4621 100.505 33.1459 85.1355 43.505 66.3879C45.3518 63.0453 50.8539 61.9924 56.8843 63.8266C62.4688 65.5254 68.7765 69.9944 68.1741 76.999C67.6997 82.5164 74.6207 87.6432 81.3138 92.6013C83.4485 94.1826 85.4648 95.6762 87.1437 97.1191Z" fill="#000072"/>
<path d="M60.4424 128.394C60.4424 128.394 60.4467 128.4 60.4531 128.415C60.4467 128.402 60.4424 128.394 60.4424 128.394Z" fill="#F7D1B5"/>
<path d="M45.6838 102.446C45.6838 102.446 42.9532 118.555 41.5722 124.429C37.2482 126.889 37.0779 133.181 42.9001 133.181C47.3955 133.181 52.5787 133.469 54.6769 131.889C60.2211 127.712 63.3408 98.3194 63.3408 98.3194" fill="white"/>
<path d="M42.899 133.181C47.3948 133.181 52.5796 133.469 54.6782 131.889C56.5515 130.477 58.147 126.188 59.4412 121.124C57.9295 124.737 56.3707 127.587 54.9192 128.68C52.8207 130.26 47.6358 129.972 43.14 129.972C40.7087 129.972 39.3228 128.874 38.8485 127.417C37.6879 130.108 38.8302 133.181 42.899 133.181Z" fill="#DFE7F2"/>
<path d="M45.6838 102.446L45.0818 105.179L44.4867 107.913L43.3031 113.379C42.9125 115.201 42.5122 117.021 42.1019 118.837C41.7006 120.654 41.3138 122.474 40.9672 124.287L41.2648 123.889L41.2645 123.889C40.0836 124.56 39.0787 125.566 38.4525 126.796C38.1393 127.41 37.9215 128.08 37.8357 128.78C37.7526 129.478 37.8018 130.212 38.0461 130.905C38.285 131.596 38.7263 132.233 39.2991 132.693C39.8684 133.16 40.5444 133.449 41.2185 133.614C41.5569 133.696 41.8977 133.747 42.2362 133.775C42.573 133.804 42.9215 133.803 43.2202 133.803L45.0868 133.816C46.335 133.825 47.5895 133.832 48.8535 133.788C50.1174 133.736 51.3924 133.661 52.6837 133.383C53.3277 133.237 53.9813 133.043 54.6143 132.692C54.9317 132.518 55.2384 132.282 55.4906 132.036C55.747 131.789 55.9684 131.525 56.1726 131.256C56.9795 130.172 57.5257 129.002 58.0219 127.825C58.9951 125.465 59.6797 123.037 60.2881 120.6C60.8977 118.162 61.3909 115.704 61.8237 113.239C62.036 112.005 62.2347 110.77 62.4222 109.534C62.5135 108.915 62.595 108.295 62.6776 107.675C62.7628 107.056 62.8346 106.435 62.8994 105.813C63.0374 104.57 63.1445 103.324 63.2229 102.075C63.3043 100.827 63.3517 99.5749 63.3409 98.3193C62.2274 103.208 61.4481 108.116 60.5084 112.996C60.0348 115.434 59.5212 117.862 58.9383 120.267C58.6432 121.468 58.3249 122.662 57.9699 123.841C57.6168 125.021 57.2345 126.189 56.7815 127.319C56.3266 128.442 55.812 129.553 55.1356 130.48C54.9654 130.709 54.7853 130.924 54.5938 131.111C54.3992 131.3 54.2093 131.449 53.9807 131.577C53.5249 131.838 52.9743 132.017 52.4054 132.149C51.2589 132.408 50.034 132.502 48.8094 132.546C47.5813 132.589 46.3417 132.582 45.0969 132.573L43.2236 132.56C42.8992 132.56 42.6235 132.56 42.339 132.536C42.0565 132.513 41.7791 132.471 41.5116 132.406C40.9779 132.275 40.4807 132.056 40.0845 131.729C39.6847 131.407 39.3891 130.98 39.2193 130.494C38.8752 129.515 39.0522 128.346 39.5602 127.36C40.0665 126.364 40.8943 125.529 41.8793 124.97L41.8796 124.969C42.0261 124.891 42.1255 124.759 42.1667 124.61L42.1773 124.571C42.3013 124.118 42.4098 123.66 42.5213 123.204C42.6228 122.747 42.7243 122.29 42.8169 121.831C42.9109 121.373 42.9935 120.913 43.0818 120.454L43.3211 119.073C43.6186 117.229 43.9055 115.385 44.1823 113.54C44.4656 111.695 44.7146 109.846 44.971 107.998C45.0997 107.074 45.2212 106.149 45.3384 105.223C45.4568 104.298 45.5757 103.373 45.6838 102.446Z" fill="#000072"/>
<path d="M49.8126 125.104C48.9882 124.801 48.1374 124.564 47.2734 124.375C46.4086 124.187 45.5265 124.056 44.6287 124.01C43.7321 123.969 42.8148 124.005 41.9028 124.219C40.9931 124.422 40.0823 124.833 39.3263 125.497C39.0678 125.723 39.0423 126.117 39.2691 126.375C39.4959 126.634 39.8893 126.659 40.1477 126.432C40.1656 126.417 40.1852 126.397 40.2007 126.38C40.7045 125.819 41.389 125.385 42.1641 125.114C42.9355 124.832 43.7806 124.693 44.6338 124.632C45.4891 124.574 46.3588 124.598 47.2254 124.682C48.0921 124.766 48.9591 124.9 49.8126 125.104Z" fill="#000072"/>
<path d="M81.728 101.403C75.3335 96.757 67.5428 99.2466 64.6638 103.992C57.8986 115.143 67.5964 123.818 67.5964 123.818C67.5964 123.818 62.5989 124.948 62.6002 129.44C62.6013 133.344 66.5095 133.163 67.7311 133.163C68.5769 133.163 72.5573 133.181 76.2353 133.193C77.8691 133.198 79.4433 133.202 80.6566 133.202C87.1325 133.202 95.0442 128.752 96.5394 118.51C97.6325 111.022 94.9292 103.49 87.5487 96.6477" fill="white"/>
<path d="M62.6009 129.44C62.6009 133.343 66.5098 133.163 67.7307 133.163C68.577 133.163 72.5566 133.181 76.235 133.192C77.8698 133.197 79.4444 133.202 80.6575 133.202C87.1313 133.202 95.0435 128.753 96.5395 118.509C96.7674 116.948 96.8303 115.381 96.7177 113.822C96.6783 114.367 96.6181 114.912 96.5395 115.457C95.0435 125.699 87.1313 130.15 80.6575 130.15C79.4444 130.15 77.8699 130.145 76.235 130.139C72.5566 130.129 68.577 130.11 67.7307 130.11C66.688 130.11 63.6881 130.242 62.8341 127.855C62.6847 128.329 62.6009 128.856 62.6009 129.44Z" fill="#DFE7F2"/>
<path d="M68.7851 122.088C70.114 122.438 73.3655 122.04 78.3047 124.497C80.5613 125.62 75.9579 116.133 70.9082 114.925C63.2545 113.093 67.4563 121.738 68.7851 122.088Z" fill="#DFE7F2"/>
<path d="M81.728 101.403C80.428 100.281 78.8702 99.415 77.1759 98.932C75.4836 98.4441 73.6659 98.3403 71.9024 98.6316C71.019 98.7699 70.1527 99.021 69.3202 99.3583C68.4872 99.6952 67.6874 100.124 66.9484 100.647C66.2067 101.166 65.5255 101.78 64.9327 102.479C64.6306 102.824 64.3649 103.201 64.113 103.588C63.8827 103.971 63.6623 104.353 63.4428 104.74C62.6137 106.311 62.008 108.021 61.7092 109.797C61.4374 111.577 61.486 113.411 61.8698 115.168C62.0658 116.045 62.3316 116.904 62.6618 117.734C62.9898 118.566 63.3996 119.36 63.8505 120.125C64.3038 120.889 64.8075 121.62 65.3556 122.316C65.6335 122.66 65.9143 123.003 66.2186 123.326C66.3699 123.489 66.5232 123.65 66.6816 123.808C66.8429 123.968 66.9941 124.115 67.1818 124.281L67.182 124.281L67.4593 123.212C67.2171 123.271 67.028 123.332 66.8199 123.403C66.6172 123.473 66.4177 123.55 66.2209 123.634C65.8279 123.802 65.4457 123.997 65.0771 124.221C64.3419 124.668 63.6573 125.24 63.1205 125.955C62.5852 126.666 62.2061 127.519 62.0669 128.402C61.9949 128.844 61.9645 129.284 61.9877 129.729C62.0097 130.174 62.0808 130.63 62.2356 131.077C62.3904 131.521 62.628 131.957 62.9572 132.315C63.2825 132.675 63.6767 132.966 64.0929 133.17C64.9288 133.587 65.813 133.72 66.6563 133.769C67.0797 133.793 67.4983 133.783 67.8859 133.785L69.0831 133.789L71.4775 133.798L76.266 133.814L78.6619 133.819L79.8599 133.821C80.2611 133.821 80.6511 133.827 81.0749 133.814C84.405 133.715 87.6639 132.554 90.3334 130.582C91.0023 130.09 91.6267 129.54 92.2122 128.952C92.7981 128.365 93.3395 127.733 93.8241 127.06C94.3103 126.389 94.7573 125.688 95.136 124.952C95.5203 124.219 95.8597 123.463 96.135 122.685C96.7035 121.135 97.058 119.517 97.2361 117.887C97.4191 116.258 97.4485 114.605 97.2631 112.971C96.8953 109.703 95.7975 106.53 94.1294 103.721L93.8177 103.194L93.6618 102.93L93.4924 102.675L92.8098 101.66C92.5774 101.325 92.3224 101.007 92.0796 100.68L91.7109 100.193L91.3185 99.7262L90.5298 98.7957L89.6982 97.9058C89.5586 97.7585 89.4226 97.6073 89.2802 97.4631L88.8439 97.0392L87.9713 96.192C87.7251 95.953 87.3317 95.9588 87.0927 96.205C86.8536 96.4512 86.8595 96.8445 87.1057 97.0835L87.1263 97.1035L87.9716 97.9246L88.3944 98.335C88.5324 98.4747 88.6634 98.6207 88.7982 98.7631L89.602 99.6227L90.3614 100.519L90.7396 100.969L91.0932 101.437C91.3261 101.751 91.5718 102.056 91.7944 102.377L92.4477 103.349L92.6099 103.592L92.7585 103.844L93.0557 104.348C94.6481 107.028 95.6789 110.025 96.0272 113.105C96.2025 114.645 96.1739 116.205 96.0011 117.746C95.8331 119.289 95.4981 120.813 94.9667 122.261C94.7096 122.988 94.393 123.692 94.0361 124.373C93.6847 125.057 93.2697 125.706 92.8199 126.327C92.3718 126.95 91.8712 127.535 91.3296 128.077C90.7886 128.62 90.2122 129.129 89.5938 129.583C87.1297 131.406 84.0988 132.483 81.0402 132.572C80.666 132.584 80.2577 132.578 79.8605 132.579L78.6636 132.576L76.2698 132.571L71.479 132.555L69.0836 132.546L67.886 132.542C67.4755 132.54 67.0952 132.549 66.7214 132.527C65.9779 132.487 65.2479 132.362 64.6506 132.059C64.0497 131.763 63.6176 131.289 63.4094 130.668C63.1983 130.056 63.178 129.301 63.2925 128.61C63.4023 127.914 63.6926 127.266 64.1136 126.702C64.5363 126.138 65.0962 125.663 65.7234 125.283C66.0373 125.092 66.3676 124.923 66.7086 124.777C66.8791 124.705 67.0524 124.638 67.2265 124.577C67.3956 124.518 67.5879 124.46 67.7335 124.424L67.7353 124.424C68.0712 124.342 68.277 124.003 68.195 123.667C68.1645 123.542 68.0988 123.436 68.0108 123.355L68.0106 123.355C67.8824 123.231 67.7324 123.074 67.5967 122.927C67.4579 122.776 67.3224 122.621 67.1887 122.464C66.9217 122.15 66.6649 121.826 66.4137 121.498C65.918 120.837 65.4649 120.144 65.0619 119.425C64.2569 117.989 63.6439 116.452 63.3079 114.859C63.1312 114.065 63.0455 113.255 63.0121 112.446C62.9732 111.635 63.0511 110.825 63.1551 110.021C63.4046 108.417 63.9315 106.851 64.68 105.385C64.8763 105.024 65.0746 104.658 65.2753 104.303C65.4833 103.968 65.7021 103.637 65.958 103.332C66.4574 102.712 67.0437 102.155 67.6932 101.676C68.3425 101.198 69.0444 100.784 69.7846 100.447C70.5246 100.107 71.3067 99.8595 72.1042 99.6748C73.7025 99.3169 75.383 99.2818 77.0225 99.5828C78.6644 99.8814 80.2545 100.519 81.728 101.403Z" fill="#000072"/>
<path d="M78.8161 126.208C78.0361 125.617 77.1929 125.101 76.2988 124.679C75.4049 124.255 74.4615 123.926 73.4929 123.688C71.5533 123.208 69.5255 123.109 67.5361 123.199L67.6566 124.436C69.551 124.149 71.4724 124.038 73.3764 124.298C75.2773 124.551 77.1406 125.193 78.8161 126.208Z" fill="#000072"/>
<path d="M67.5999 127.153C67.1739 127.566 66.8546 128.096 66.6429 128.673C66.5392 128.962 66.4615 129.265 66.4181 129.575C66.3798 129.884 66.37 130.2 66.3949 130.519C66.4415 131.156 66.6504 131.808 67.0254 132.369C67.2122 132.649 67.4355 132.907 67.6891 133.133C67.8157 133.247 67.9496 133.353 68.0917 133.451C68.1625 133.5 68.2363 133.547 68.3122 133.593L68.4305 133.659C68.4761 133.682 68.5039 133.699 68.5746 133.729C68.8975 133.845 69.2536 133.677 69.3699 133.355C69.4861 133.032 69.3186 132.676 68.9958 132.559C68.9974 132.563 68.9579 132.55 68.9365 132.543L68.8558 132.515C68.801 132.493 68.7452 132.47 68.6899 132.443C68.5792 132.391 68.4698 132.331 68.3645 132.264C68.1529 132.13 67.9576 131.968 67.7842 131.783C67.4375 131.413 67.1872 130.941 67.0607 130.415C66.9959 130.153 66.9606 129.878 66.9478 129.6C66.9307 129.322 66.9447 129.041 66.9853 128.761C67.0709 128.202 67.2656 127.64 67.5999 127.153Z" fill="#000072"/>
<path d="M41.8602 128.217C41.6117 128.659 41.4156 129.136 41.2742 129.636C41.1376 130.137 41.0526 130.669 41.1076 131.226C41.1615 131.776 41.3734 132.367 41.7871 132.818C42.1895 133.28 42.7317 133.58 43.2709 133.783L43.5922 132.582C43.1653 132.515 42.7567 132.388 42.431 132.144C42.0967 131.91 41.8574 131.542 41.7178 131.108C41.5789 130.672 41.5491 130.18 41.5804 129.689C41.615 129.197 41.707 128.699 41.8602 128.217Z" fill="#000072"/>
<path d="M46.1934 128.217C45.9449 128.659 45.7488 129.136 45.6075 129.636C45.4707 130.137 45.3857 130.669 45.4409 131.226C45.4948 131.776 45.7067 132.367 46.1203 132.818C46.5227 133.28 47.065 133.58 47.6041 133.783L47.9255 132.582C47.4985 132.515 47.0899 132.388 46.7641 132.144C46.4298 131.91 46.1906 131.542 46.0509 131.108C45.912 130.672 45.8823 130.18 45.9136 129.689C45.9483 129.197 46.0403 128.699 46.1934 128.217Z" fill="#000072"/>
<path d="M103.945 120.341C118.661 121.816 119.113 131.104 116.945 135.109C114.644 139.36 109.028 140.33 96.7729 140.33C87.9997 140.33 77.4237 141.007 76.1533 137.311C75.2515 134.687 77.5701 130.755 81.0722 128.844C89.5983 124.194 100.529 124.303 108.399 127.528" fill="white"/>
<path d="M76.1538 137.31C77.4244 141.007 87.9984 140.331 96.7726 140.331C97.852 140.331 98.879 140.323 99.8562 140.307C109.99 140.134 114.845 138.987 116.943 135.109C117.939 133.273 118.382 130.323 117.15 127.527C117.106 128.952 116.731 130.255 116.199 131.237C114.101 135.114 109.246 136.262 99.1122 136.435C98.135 136.451 97.1079 136.459 96.0285 136.459C88.2578 136.459 79.0776 136.988 76.1956 134.543C75.9049 135.526 75.8708 136.485 76.1538 137.31Z" fill="#DFE7F2"/>
<path d="M75.9861 136.555C75.9913 136.608 75.9992 136.66 76.0071 136.713C76.0228 136.815 76.0437 136.917 76.0673 137.017C76.0935 137.116 76.1197 137.213 76.1538 137.31C77.4244 141.007 87.9985 140.331 96.7726 140.331C97.852 140.331 98.8791 140.323 99.8563 140.307C100.839 139.581 101.955 138.35 102.463 136.33C101.418 136.38 100.302 136.414 99.1122 136.435C98.135 136.451 97.108 136.459 96.0285 136.459C88.2578 136.459 79.0776 136.988 76.1957 134.543C76.1826 134.59 76.1721 134.635 76.1563 134.68C76.1406 134.745 76.1223 134.808 76.1092 134.871C76.0961 134.921 76.0856 134.968 76.0777 135.015C76.0542 135.12 76.0359 135.219 76.0201 135.321C76.0096 135.387 76.0018 135.45 75.9939 135.513C75.9782 135.641 75.9677 135.767 75.9624 135.893C75.952 136.118 75.9599 136.341 75.9861 136.555Z" fill="#F27E1E"/>
<path d="M76.1538 137.31C77.4244 141.007 87.9984 140.331 96.7726 140.331C97.852 140.331 98.879 140.323 99.8563 140.307C101.389 139.175 103.249 136.81 102.62 132.138C102.12 128.415 99.8169 126.186 96.5446 125.222C91.2707 125.151 85.8003 126.267 81.0713 128.845C77.5711 130.755 75.2525 134.687 76.1538 137.31Z" fill="#FFAD40"/>
<g opacity="0.4">
<path d="M94.9096 128.217C93.7182 125.888 80.4642 129.462 81.2584 132.799C82.05 136.125 95.5561 129.481 94.9096 128.217Z" fill="white"/>
</g>
<path d="M75.9861 136.555C75.9913 136.608 75.9992 136.66 76.0071 136.713C76.0228 136.815 76.0437 136.917 76.0673 137.017C76.0935 137.116 76.1197 137.213 76.1538 137.31C77.4244 141.007 87.9985 140.331 96.7726 140.331C97.852 140.331 98.8791 140.323 99.8563 140.307C100.839 139.581 101.955 138.35 102.463 136.33C101.418 136.38 100.302 136.414 99.1122 136.435C98.135 136.451 97.108 136.459 96.0285 136.459C88.2578 136.459 79.0776 136.988 76.1957 134.543C76.1826 134.59 76.1721 134.635 76.1563 134.68C76.1406 134.745 76.1223 134.808 76.1092 134.871C76.0961 134.921 76.0856 134.968 76.0777 135.015C76.0542 135.117 76.0359 135.219 76.0201 135.321C76.0096 135.387 76.0018 135.45 75.9939 135.513C75.9755 135.641 75.9677 135.767 75.9624 135.893C75.952 136.118 75.9599 136.341 75.9861 136.555Z" fill="#FF9343"/>
<path d="M103.883 120.959C106.03 121.18 108.163 121.58 110.156 122.327C112.14 123.07 114.001 124.179 115.326 125.765C115.986 126.554 116.502 127.455 116.833 128.422C117.164 129.389 117.311 130.419 117.271 131.444C117.231 132.466 117.01 133.49 116.597 134.409C116.179 135.323 115.558 136.142 114.777 136.775C113.999 137.418 113.059 137.876 112.074 138.233C111.081 138.578 110.04 138.827 108.979 139.008C106.857 139.371 104.676 139.52 102.495 139.61C100.309 139.699 98.1229 139.709 95.9192 139.711C93.7139 139.72 91.5155 139.76 89.324 139.757C87.134 139.751 84.9447 139.718 82.7929 139.508C81.7191 139.404 80.6507 139.261 79.6338 139.002C79.1272 138.871 78.6333 138.711 78.1823 138.5C77.7323 138.291 77.3234 138.026 77.0421 137.699C76.9013 137.536 76.7928 137.359 76.7191 137.169C76.6459 136.966 76.5869 136.735 76.5603 136.504C76.5051 136.039 76.5441 135.547 76.6548 135.063C76.8767 134.09 77.3589 133.152 77.9663 132.312C78.5784 131.472 79.3246 130.722 80.159 130.096C80.5799 129.784 81.0134 129.507 81.4836 129.261C81.7231 129.138 81.9603 129.01 82.2016 128.891L82.9307 128.543C84.8937 127.651 86.9686 127.014 89.0815 126.588C91.1951 126.16 93.3479 125.938 95.505 125.882C99.8251 125.772 104.15 126.32 108.4 127.527C107.43 126.991 106.409 126.546 105.361 126.17L104.571 125.899L103.77 125.658L102.962 125.439C102.692 125.37 102.42 125.311 102.147 125.248C99.9661 124.759 97.7226 124.557 95.4827 124.564C90.9974 124.59 86.5265 125.629 82.457 127.516L81.6997 127.884C81.449 128.01 81.2024 128.144 80.9538 128.274C80.4503 128.54 79.951 128.851 79.4883 129.194C78.5612 129.885 77.7353 130.708 77.0484 131.643C76.3677 132.58 75.8107 133.632 75.5357 134.807C75.4003 135.393 75.3426 136.013 75.4147 136.642C75.4514 136.958 75.5243 137.264 75.6365 137.578C75.7572 137.902 75.9394 138.202 76.1553 138.457C76.5912 138.969 77.1333 139.309 77.6722 139.57C78.2153 139.832 78.7708 140.017 79.3266 140.168C80.4396 140.464 81.5566 140.629 82.6701 140.745C84.8986 140.961 87.1145 140.993 89.3223 141C91.5301 141.003 93.7307 140.963 95.9246 140.954C98.12 140.952 100.334 140.942 102.545 140.852C104.756 140.76 106.976 140.611 109.192 140.232C110.299 140.043 111.405 139.782 112.49 139.404C113.568 139.013 114.639 138.499 115.563 137.738C116.492 136.985 117.235 136.007 117.73 134.921C118.218 133.831 118.466 132.665 118.513 131.491C118.559 130.318 118.391 129.134 118.009 128.019C117.628 126.904 117.031 125.866 116.28 124.968C115.528 124.07 114.631 123.31 113.663 122.685C112.694 122.059 111.656 121.563 110.592 121.163C108.46 120.365 106.231 119.952 104.007 119.722C103.666 119.687 103.36 119.935 103.325 120.276C103.29 120.618 103.538 120.923 103.879 120.958L103.879 120.958L103.883 120.959Z" fill="#000072"/>
<path d="M48.6692 116.133C51.1736 116.304 52.2951 121.118 50.6052 122.737C49.5114 123.786 45.4105 122.19 44.7881 121.916C43.4321 121.321 45.7652 115.935 48.6692 116.133Z" fill="#DFE7F2"/>
<path d="M67.3516 61.0057C64.7761 66.9067 77.7914 72.5765 80.3579 66.672C82.9332 60.7714 69.9179 55.1015 67.3516 61.0057Z" fill="#FF979C"/>
<path d="M18.464 49.5758C18.2953 49.429 18.1485 49.3039 17.9861 49.1813C17.8272 49.057 17.6659 48.9393 17.502 48.8263C17.339 48.7105 17.1734 48.5996 17.005 48.4948C16.8374 48.3883 16.6698 48.2797 16.4978 48.1812C16.1522 47.9878 15.8113 47.7801 15.4524 47.6128C15.0976 47.436 14.7437 47.2549 14.3755 47.1087C14.0111 46.953 13.647 46.7949 13.2723 46.6664C12.8974 46.5386 12.5283 46.3916 12.1458 46.2885C11.7659 46.1776 11.3871 46.0603 11.0028 45.9656L9.84449 45.7057C9.45904 45.6161 9.06555 45.569 8.67568 45.5043L8.08979 45.4138C7.89436 45.3853 7.69676 45.3741 7.50042 45.3535L6.32089 45.2484C5.92666 45.2339 5.53215 45.2297 5.13825 45.2201L4.54764 45.2109C4.35084 45.2064 4.1542 45.2273 3.95764 45.2342C3.56458 45.2539 3.17189 45.2753 2.78015 45.3024L2.4864 45.3215L2.19422 45.3598L1.61056 45.4365C1.22151 45.4854 0.834002 45.5437 0.447399 45.6007C0.161268 45.6428 -0.0364399 45.9089 0.00565529 46.195C0.0448513 46.4608 0.277235 46.6503 0.539417 46.6421L0.575428 46.641C0.954199 46.6295 1.33214 46.6195 1.70855 46.5999L2.27306 46.574L2.55492 46.561L2.83741 46.5671C3.59015 46.5959 4.34094 46.5578 5.08812 46.6357L6.20845 46.7117L7.32148 46.8504C7.5066 46.8748 7.69308 46.8898 7.87696 46.9218L8.42783 47.0227L8.97867 47.1217C9.16255 47.1532 9.34688 47.1822 9.52748 47.2293C10.9888 47.5342 12.4119 47.985 13.8072 48.5027C14.507 48.7591 15.1873 49.0612 15.8651 49.3701C16.0352 49.4466 16.1972 49.5362 16.3661 49.6152C16.535 49.6946 16.7002 49.7793 16.8624 49.8684C17.0272 49.9543 17.1923 50.0394 17.3508 50.1318C17.5103 50.2192 17.6776 50.3157 17.8161 50.3996L17.8486 50.4193C18.0961 50.5693 18.4183 50.4901 18.5683 50.2426C18.7025 50.0212 18.6531 49.74 18.464 49.5758Z" fill="#000072"/>
<path d="M18.4197 56.5014C17.7321 56.2548 17.0659 56.0918 16.3745 55.9579C15.6875 55.8247 14.9924 55.7341 14.2933 55.6801C12.8954 55.5684 11.4795 55.6209 10.0809 55.8304C9.38051 55.9278 8.68649 56.0813 8.00303 56.2741C7.31737 56.4591 6.64737 56.7064 5.99626 56.9946C4.69231 57.5671 3.48137 58.3606 2.44665 59.3263C2.23472 59.5241 2.22329 59.8562 2.42105 60.0681C2.60223 60.2623 2.89611 60.2882 3.10708 60.1392L3.11677 60.1322C4.18419 59.3801 5.32084 58.7501 6.53583 58.3044C6.83439 58.1819 7.14583 58.0905 7.45131 57.9869C7.76408 57.9021 8.07172 57.804 8.38809 57.7318C9.01595 57.5729 9.65621 57.46 10.3007 57.3711C11.5905 57.1917 12.902 57.157 14.2152 57.1835C14.8723 57.1995 15.5299 57.2385 16.188 57.2918C16.8408 57.3474 17.5135 57.4235 18.1419 57.5121L18.1691 57.5159C18.4563 57.5564 18.722 57.3563 18.7625 57.069C18.7979 56.8181 18.6493 56.5836 18.4197 56.5014Z" fill="#000072"/>
<path d="M22.1732 29.9922C29.9515 28.6219 45.879 25.8185 53.7039 24.4421C51.0065 14.2089 42.4073 -0.143854 37.188 0.0273428C28.9451 3.67771 24.5719 17.1334 22.1732 29.9922Z" fill="white"/>
<path d="M22.1732 29.9922L36.8014 27.4163C37.8496 19.3952 39.6779 0.738773 33.8261 1.98439C29.242 6.57402 23.6831 18.5078 22.1732 29.9922Z" fill="#DFE7F2"/>
<g opacity="0.5">
<path d="M33.3016 2.53679C40.3304 -1.89631 48.0481 14.3096 51.7611 24.7846L53.7039 24.4421C50.2209 13.5679 40.9233 -6.45645 33.3016 2.53679Z" fill="white"/>
</g>
<path d="M22.1745 30.6077C22.4593 30.6077 22.715 30.4087 22.7758 30.1189C26.616 11.8267 31.738 1.57023 37.1986 1.23877C39.6289 1.09086 42.1913 2.90455 44.8138 6.62838C47.6065 10.5938 50.4014 16.654 53.1208 24.6403C53.2303 24.962 53.5799 25.1338 53.9014 25.0244C54.2229 24.9149 54.3949 24.5654 54.2854 24.2438C48.6903 7.81242 42.9177 -0.339871 37.1241 0.0108516C34.0098 0.199906 31.0937 2.89896 28.4569 8.03305C25.8739 13.0623 23.5574 20.408 21.5719 29.8661C21.502 30.1986 21.715 30.5247 22.0474 30.5944C22.0901 30.6034 22.1326 30.6077 22.1745 30.6077Z" fill="#000072"/>
<path d="M28.31 20.8204C33.9239 18.3328 37.4478 17.2913 42.3383 16.7348C42.8 15.2722 38.6825 3.41992 36.1028 4.97595C31.8957 8.16327 28.5554 16.1431 28.31 20.8204Z" fill="#FF979C"/>
<path d="M33.6251 7.47574C38.5424 5.02512 37.6452 13.2148 37.1263 17.6429C39.1674 17.1356 40.8265 16.9079 42.3382 16.7347C42.8 15.2722 38.6825 3.41988 36.1027 4.9759C35.3313 5.4411 34.4765 6.32779 33.6251 7.47574Z" fill="#FF7681"/>
<path d="M27.6763 21.7875L28.566 21.3868C35.2973 18.3557 39.095 17.7317 42.408 17.3522L42.8081 17.3064L42.9297 16.9224C43.4357 15.325 40.3947 6.70105 37.9009 4.73572C36.9186 3.9616 36.1514 4.22018 35.7815 4.44317C32.3698 6.50077 27.7566 15.8323 27.6895 20.8117L27.6763 21.7875ZM41.7462 16.1786C38.616 16.5592 34.9778 17.2354 28.9991 19.8358C29.5796 14.8025 33.7714 7.10692 36.4234 5.50756C36.494 5.46509 36.6596 5.36524 37.0689 5.66438C39.1513 7.1863 41.5577 14.2722 41.7462 16.1786Z" fill="#000072"/>
<path d="M57.0328 24.5227C63.1034 29.0338 80.3367 41.834 86.1428 46.1486C88.2193 39.6782 89.7993 32.941 90.2997 26.8528C90.8915 19.6617 89.9811 13.3756 86.6041 9.50484C84.6669 8.44232 81.2053 9.07039 77.2034 10.7181C77.0342 10.7853 76.8661 10.8573 76.6961 10.9323C70.1574 13.7288 62.3166 19.1067 57.3352 24.2123C57.2318 24.3155 57.1313 24.4205 57.0328 24.5227Z" fill="#FFAD40"/>
<path d="M77.3589 39.623L86.1432 46.1478C90.8574 33.6946 91.292 18.4577 88.6289 12.1563C86.8095 10.4051 84.0926 9.32714 82.4828 15.8885C80.812 22.6838 78.6029 33.4315 77.3589 39.623Z" fill="#FF9343"/>
<g opacity="0.5">
<path d="M57.0328 24.5227L58.3227 25.4698C66.8989 17.3724 83.15 9.19941 86.8212 10.5907C89.4824 11.6008 90.381 19.5038 90.2997 26.8528C90.8915 19.6617 89.9811 13.3756 86.6041 9.50484C84.6669 8.44232 81.2053 9.07039 77.2034 10.7181C77.0342 10.7853 76.8661 10.8573 76.6961 10.9323C70.1334 13.7919 62.3244 19.1428 57.3352 24.2123C57.2318 24.3155 57.1313 24.4206 57.0328 24.5227Z" fill="white"/>
</g>
<path d="M86.1424 46.7625C86.4093 46.7625 86.655 46.5876 86.733 46.3184C89.6642 36.1971 91.1617 27.941 91.1838 21.7795C91.2062 15.5785 89.7274 11.5052 86.7887 9.67264C83.9853 7.92454 79.9697 8.28736 74.8534 10.7511C69.8018 13.1836 63.6667 17.664 56.6185 24.0678C56.3671 24.2963 56.3484 24.6853 56.5769 24.9367C56.8052 25.188 57.1943 25.2068 57.4457 24.9783C64.4061 18.6543 70.4425 14.2405 75.387 11.8594C80.0985 9.59073 83.7156 9.20616 86.1377 10.7165C91.395 13.9949 91.1868 26.5171 85.5513 45.9761C85.4568 46.3024 85.6448 46.6436 85.9711 46.7381C86.0282 46.7546 86.0858 46.7625 86.1424 46.7625Z" fill="#000072"/>
<path d="M70.9028 19.78C43.6528 3.17444 21.4673 18.7156 15.4802 44.0284C5.84439 57.983 18.4594 77.852 44.5654 81.1969L57.3207 81.867C85.9279 83.6211 90.3974 60.2277 85.2558 40.2493" fill="white"/>
<path d="M18.8821 69.3C24.4092 75.1614 33.2126 79.7427 44.566 81.1953L57.32 81.8658C61.2642 82.1095 64.7488 81.8743 67.8144 81.232C76.2302 79.4759 81.4757 74.6803 84.333 68.3943C87.9807 60.3666 87.7428 49.909 85.2542 40.2506L70.9034 19.7813C43.6532 3.17373 21.4667 18.7133 15.4795 44.0278C14.2341 45.8312 13.3607 47.7347 12.8433 49.6887C11.0839 56.2737 13.3403 63.4292 18.8821 69.3Z" fill="white"/>
<path d="M21.7122 68.7954C21.5867 70.2228 33.2131 79.7427 44.5661 81.1963L57.3207 81.8666C61.2651 82.1091 71.7656 78.0727 69.7745 76.491C67.0341 74.3139 59.1327 79.51 37.4149 74.7979C25.2323 72.1546 21.8376 67.3679 21.7122 68.7954Z" fill="#DFE7F2"/>
<path d="M87.3753 51.0973C70.5948 51.7697 54.9686 38.9605 56.4774 25.0489C56.7976 21.3207 58.1646 17.8876 60.3245 14.9217C60.3615 14.8963 60.4014 14.8709 60.4385 14.8484C63.8217 15.9679 67.3187 17.5965 70.9038 19.7795C70.9038 19.7795 76.644 23.9588 79.4498 28.3082C83.3505 34.3549 85.2551 40.2492 85.2551 40.2492C86.1854 43.8389 86.9591 47.496 87.3753 51.0973Z" fill="#FFAD40"/>
<path d="M85.1106 14.8334C83.0854 12.1565 73.0906 18.196 73.4099 21.5535C73.6913 24.5123 77.596 25.2632 83.9079 36.3016C86.979 30.5955 87.3828 17.8368 85.1106 14.8334Z" fill="#FF979C"/>
<path d="M83.9089 36.3006C84.5669 35.0784 85.1017 33.5304 85.513 31.8273C86.3209 28.4994 86.6616 24.5683 86.5319 21.2631L86.5313 21.2604C86.4171 18.3567 85.9431 15.9363 85.1097 14.8348C83.0849 12.1578 73.0916 18.1956 73.4094 21.555C73.6913 24.5117 77.5966 25.2628 83.9089 36.3006Z" fill="#FF979C"/>
<path d="M83.9088 36.3006C84.5669 35.0784 85.1017 33.5304 85.513 31.8273C84.6654 32.3941 83.6013 32.1604 82.3857 30.0941C79.3911 25.0041 77.4682 24.3032 77.1352 22.2788C76.8939 20.8123 81.4399 17.0795 83.8312 17.4907C85.2904 17.7385 86.112 19.7388 86.5313 21.2604C86.4171 18.3567 85.9431 15.9363 85.1097 14.8348C83.0849 12.1579 73.0916 18.1957 73.4094 21.5551C73.6913 24.5117 77.5965 25.2628 83.9088 36.3006Z" fill="#FF7681"/>
<path d="M83.9079 37.0266C83.911 37.0266 83.9141 37.0266 83.9172 37.0265C84.1806 37.0231 84.4215 36.8772 84.5463 36.6452C87.619 30.9363 88.2917 17.8363 85.6888 14.396C84.8125 13.2376 82.9548 13.1349 80.4582 14.1069C77.1141 15.4088 72.423 18.8341 72.6881 21.6222C72.8352 23.1693 73.7947 24.1882 75.247 25.7305C77.0528 27.6483 79.7817 30.5463 83.2785 36.6615C83.4077 36.8874 83.648 37.0266 83.9079 37.0266ZM83.4409 14.8895C83.9597 14.8895 84.3394 15.0158 84.5324 15.2709C86.4789 17.8437 86.2769 28.8038 83.8385 34.7438C80.5898 29.2891 78.0332 26.574 76.3027 24.7363C74.9674 23.3182 74.2318 22.537 74.1318 21.4848C73.9821 19.9107 77.5044 16.813 80.9843 15.4582C81.954 15.0807 82.8027 14.8895 83.4409 14.8895Z" fill="#000072"/>
<path d="M12.2952 54.0466C18.1304 53.9353 19.5919 47.9184 14.8586 45.2367C13.4012 48.2045 12.5117 51.148 12.2952 54.0466Z" fill="#FF979C"/>
<path d="M57.3207 81.8671C59.8493 82.1374 62.4112 82.2398 64.9738 82.046C67.5354 81.8578 70.093 81.3465 72.5434 80.459C74.984 79.5608 77.3281 78.2795 79.3246 76.5499C81.313 74.8108 82.9118 72.6656 84.1594 70.3677L84.6214 69.5012L85.0338 68.6117L85.2396 68.1667L85.3425 67.9441L85.4311 67.7161L85.7843 66.803C86.2459 65.5822 86.6107 64.3301 86.9255 63.0676C87.5403 60.5385 87.84 57.9438 87.8659 55.3585C87.8944 50.187 87.0038 45.0482 85.2558 40.2493C86.0264 45.2907 86.5276 50.3198 86.3015 55.3166C86.1958 57.8104 85.927 60.2925 85.3967 62.7164L85.1799 63.6203C85.1087 63.9221 85.0393 64.2245 84.9429 64.5185L84.6725 65.4066C84.6256 65.554 84.5854 65.7039 84.5331 65.8492L84.3704 66.283L84.0453 67.151L83.964 67.3681L83.8688 67.5788L83.6786 68.0005L83.2989 68.8444C83.1557 69.117 83.0033 69.3846 82.8564 69.6551C80.4851 73.9855 76.6393 77.3544 72.0851 79.3056L71.2249 79.6601L70.7941 79.8381L70.351 79.9836L69.4628 80.2734C69.1662 80.3694 68.8719 80.475 68.5661 80.5408C67.9596 80.6893 67.356 80.8592 66.7445 80.9977L64.8909 81.3406C62.3999 81.7121 59.8671 81.8536 57.3207 81.8671Z" fill="#000072"/>
<path d="M71.0948 19.4649C70.4574 19.0457 69.8239 18.6172 69.1708 18.219C68.8461 18.0167 68.5195 17.8172 68.1866 17.6282C67.8543 17.4382 67.5263 17.2395 67.1897 17.0563C65.8518 16.3068 64.4666 15.638 63.056 15.0192C60.1979 13.8749 57.2074 13.0298 54.1483 12.5621C51.0908 12.0962 47.9597 12.0194 44.8787 12.4214C41.7989 12.8213 38.7787 13.6958 35.9611 15.003C33.1409 16.3082 30.5369 18.0532 28.2106 20.095C25.8812 22.1374 23.8365 24.4863 22.0792 27.0215C18.5591 32.1001 16.1796 37.8892 14.7619 43.8586L14.8728 43.6091C13.4901 45.6227 12.4484 47.8997 11.9346 50.3068C11.4039 52.7096 11.3964 55.2158 11.8376 57.623C12.2873 60.0312 13.1658 62.3427 14.3655 64.4544C15.5614 66.5707 17.0569 68.5008 18.7462 70.2251C20.4358 71.9517 22.3225 73.4701 24.3234 74.8025C25.323 75.4703 26.3465 76.1024 27.3975 76.6852C28.4485 77.2683 29.5429 77.7688 30.6587 78.2078C35.1236 79.9645 39.8454 80.9436 44.5654 81.1971C42.2494 80.7212 39.9686 80.1395 37.7371 79.4336C35.5101 78.7143 33.3297 77.8791 31.2382 76.8733C30.1925 76.3717 29.1563 75.857 28.1346 75.3159C27.111 74.7786 26.1077 74.2018 25.1421 73.5673C23.2132 72.2962 21.4117 70.8348 19.8008 69.1921C18.1914 67.5495 16.7759 65.7194 15.6512 63.729C14.5222 61.7425 13.7062 59.5847 13.2895 57.3558C12.8818 55.1272 12.89 52.8262 13.377 50.621C13.8483 48.4118 14.8047 46.3182 16.0877 44.448L16.1667 44.3328L16.1986 44.1984C17.5792 38.3832 19.8952 32.763 23.2918 27.8635C24.9873 25.4173 26.9543 23.1597 29.1853 21.2037C31.4136 19.2483 33.8984 17.5841 36.5831 16.3419C39.2656 15.0978 42.1354 14.2666 45.0684 13.8855C48.0024 13.5026 50.9921 13.5746 53.9259 14.0215C55.3932 14.2457 56.8487 14.5595 58.282 14.96L59.3529 15.2753C59.7093 15.3824 60.0618 15.5036 60.4145 15.6227C60.769 15.7368 61.1142 15.879 61.4651 16.0035L62.5151 16.3882C65.3321 17.3819 68.05 18.6742 70.7107 20.0953L70.718 20.0991C70.8979 20.1952 71.1215 20.1273 71.2176 19.9474C71.3081 19.778 71.2518 19.5688 71.0948 19.4649Z" fill="#000072"/>
<path d="M79.5783 62.5434C79.7346 62.5011 79.9221 62.4547 80.0996 62.4149C80.2775 62.3699 80.4597 62.3339 80.6418 62.2969C80.8224 62.2562 81.0045 62.2205 81.1888 62.191C81.3729 62.1619 81.5534 62.1207 81.7381 62.0943C82.475 61.9851 83.2123 61.8831 83.9557 61.8305C85.4398 61.7193 86.9321 61.6801 88.4207 61.7916C88.6072 61.7964 88.7924 61.8195 88.9778 61.8402L89.5345 61.8975L90.0918 61.9531C90.2774 61.9733 90.4607 62.0105 90.6454 62.0382L91.7533 62.2131L92.8508 62.4502C93.5904 62.5822 94.3013 62.8266 95.0325 63.0074L95.3057 63.0797L95.5729 63.1702L96.1082 63.3513C96.4645 63.4743 96.8248 63.5886 97.1857 63.7045L97.2199 63.7154C97.4953 63.8039 97.7901 63.6523 97.8785 63.3769C97.9607 63.1212 97.8357 62.8486 97.5967 62.7402C97.241 62.5784 96.8847 62.4151 96.5245 62.2605L95.9848 62.0252L95.7147 61.9075L95.4377 61.8079C95.0687 61.6734 94.6973 61.544 94.3251 61.4163C94.1382 61.3552 93.955 61.2807 93.7646 61.2306L93.1945 61.0759C92.8134 60.976 92.4331 60.8709 92.0503 60.7756L90.8878 60.5501C90.6934 60.5156 90.5004 60.4717 90.3048 60.4449L89.7167 60.3697C89.3241 60.3239 88.933 60.2603 88.5378 60.2397L87.3528 60.1687C86.9574 60.1534 86.5609 60.1612 86.165 60.1626C85.769 60.1558 85.3736 60.1949 84.978 60.2139C84.5824 60.2336 84.1888 60.2847 83.7955 60.3335C83.4012 60.372 83.011 60.4481 82.6211 60.5197C82.2299 60.5811 81.8449 60.6864 81.4592 60.7765C81.2667 60.8235 81.0756 60.8815 80.885 60.9375C80.6942 60.9915 80.5044 61.0523 80.3157 61.1184C80.1269 61.1815 79.9394 61.2501 79.7523 61.3255C79.5623 61.3983 79.3866 61.4779 79.1839 61.5722C78.9214 61.6943 78.8076 62.0059 78.9297 62.2683C79.0388 62.5031 79.2998 62.6189 79.5415 62.5534L79.5783 62.5434Z" fill="#000072"/>
<path d="M77.2963 69.2876C77.9247 69.3765 78.5922 69.4895 79.2349 69.6168C79.8819 69.7478 80.5247 69.8924 81.1605 70.0589C82.4298 70.397 83.6804 70.7934 84.8701 71.3229C85.4649 71.5866 86.0488 71.8725 86.6081 72.1989C86.8921 72.3559 87.1606 72.5354 87.4376 72.7034C87.7026 72.8876 87.9765 73.0616 88.2295 73.2619C89.2736 74.0265 90.1914 74.9466 91.0089 75.9649L91.0163 75.9741C91.1978 76.2001 91.5282 76.2363 91.7542 76.0548C91.9613 75.8886 92.0088 75.5974 91.876 75.3759C91.1491 74.1615 90.2051 73.0638 89.1106 72.1527C88.5647 71.6955 87.9894 71.2724 87.3817 70.9048C86.7783 70.5303 86.1539 70.1907 85.5079 69.9033C84.2219 69.3147 82.8759 68.8723 81.5017 68.5926C80.8151 68.451 80.1219 68.3456 79.425 68.2834C78.7235 68.2207 78.0382 68.1929 77.3093 68.2395C77.0198 68.258 76.8001 68.5077 76.8186 68.7972C76.8348 69.0501 77.0275 69.2497 77.269 69.2838L77.2963 69.2876Z" fill="#000072"/>
<path d="M60.8626 14.9884C56.7204 13.3162 53.9425 14.7067 49.4967 8.27054C46.4005 3.78386 44.6962 8.04482 44.6739 10.8191C44.6739 10.8191 35.9996 6.28433 34.0554 8.34487C31.6788 10.8636 37.59 15.3425 35.5863 16.7063" fill="white"/>
<path d="M35.5869 17.3278C35.7073 17.3278 35.829 17.2929 35.936 17.2201C37.3385 16.2654 36.3292 14.5431 35.4386 13.0235C34.3296 11.1313 33.6136 9.71863 34.5075 8.77137C35.6245 7.58728 40.9567 9.57805 44.3861 11.3699L45.2872 11.8407L45.2954 10.8241C45.3099 9.0113 46.0168 7.20793 46.808 6.96489C47.3495 6.79833 48.143 7.40311 48.9852 8.62354C52.3688 13.522 54.9146 14.0922 57.6099 14.6958C58.5679 14.9103 59.5586 15.1322 60.63 15.5647C60.948 15.6932 61.3103 15.5395 61.4389 15.2211C61.5674 14.9028 61.4135 14.5406 61.0953 14.4121C59.9295 13.9415 58.8884 13.7083 57.8816 13.4829C55.324 12.9101 53.1151 12.4154 50.0081 7.91733C48.7857 6.1459 47.5866 5.42544 46.4431 5.7767C45.0125 6.21609 44.322 8.19103 44.1185 9.84176C41.5966 8.60402 35.4895 5.91947 33.6034 7.91836C32.0011 9.6165 33.3126 11.8541 34.3663 13.652C35.1348 14.9634 35.6472 15.9132 35.2367 16.1926C34.953 16.3857 34.8795 16.7723 35.0727 17.056C35.1928 17.2327 35.3882 17.3278 35.5869 17.3278Z" fill="#000072"/>
<path d="M69.2607 32.1564C69.2607 32.1564 67.4362 26.8072 64.8298 25.6992C62.2008 24.5815 60.471 26.4274 61.4282 28.5541C62.7818 31.5617 69.2607 32.1564 69.2607 32.1564Z" fill="#000072"/>
<path d="M27.9744 23.684C27.9744 23.684 30.7821 20.5157 33.307 20.1842C35.4265 19.906 36.7365 21.5118 35.034 23.1395C33.0317 25.0538 27.9744 23.684 27.9744 23.684Z" fill="#000072"/>
<path d="M45.3977 58.519C44.4851 59.1548 43.5178 59.5512 42.4983 59.6733C41.9928 59.7433 41.4766 59.7286 40.9873 59.6558C40.7443 59.6162 40.5039 59.5621 40.2973 59.4833C40.1927 59.4537 40.0846 59.3849 39.9765 59.3412C39.8636 59.2979 39.7701 59.2296 39.6697 59.1705C39.2765 58.9244 38.9527 58.5956 38.7139 58.189C38.477 57.7819 38.3263 57.3034 38.2464 56.7965C38.1696 56.2884 38.1601 55.7544 38.2012 55.2156C38.2461 54.676 38.3351 54.133 38.453 53.5921L38.453 53.5919L37.0112 53.2749C36.7965 54.2513 36.4951 55.21 36.0017 55.9884C35.7574 56.3769 35.4608 56.7095 35.1247 56.9574C34.7885 57.2071 34.4059 57.3608 33.9942 57.4308C33.8909 57.4474 33.7888 57.4683 33.6798 57.4689C33.5767 57.4721 33.4548 57.4895 33.3753 57.4786C33.1995 57.4716 33.0021 57.4407 32.8151 57.3757C32.4332 57.2637 32.082 57.0483 31.7939 56.7706C31.5051 56.4907 31.273 56.1411 31.0945 55.7304C30.9184 55.3183 30.8039 54.8534 30.6902 54.3521L30.685 54.3292C30.639 54.1264 30.4373 53.9992 30.2344 54.0452C30.0921 54.0775 29.9869 54.187 29.9528 54.3192C29.8112 54.8734 29.7735 55.473 29.887 56.0789C29.994 56.6841 30.2745 57.2926 30.7103 57.783C31.1439 58.2746 31.7062 58.6559 32.3342 58.8594C32.6472 58.9646 32.976 59.0287 33.3275 59.0391C33.5123 59.0495 33.6536 59.0266 33.8141 59.0171C33.9702 59.0106 34.1274 58.9793 34.2838 58.9475C34.9101 58.8239 35.5198 58.543 36.0255 58.1546C36.5349 57.7671 36.9325 57.2803 37.2501 56.7763C37.8874 55.76 38.2142 54.6636 38.455 53.583L38.4568 53.575C38.5454 53.177 38.2947 52.7826 37.8968 52.694C37.4988 52.6054 37.1044 52.8561 37.0158 53.254C37.0152 53.2568 37.0138 53.2633 37.0132 53.266L37.0132 53.2662C36.753 54.4638 36.5943 55.7177 36.7849 57.0166C36.8774 57.6623 37.0656 58.3218 37.4062 58.9314C37.7397 59.5421 38.2376 60.0886 38.8272 60.4724C38.9759 60.5656 39.1222 60.6663 39.2805 60.7347C39.4398 60.8075 39.5845 60.8907 39.7602 60.9466C40.1007 61.073 40.4345 61.1447 40.7692 61.1864C41.4362 61.271 42.1026 61.2434 42.747 61.1064C44.0322 60.8348 45.23 60.086 45.9319 59.0285C46.0463 58.856 45.9993 58.6234 45.8269 58.5089C45.6953 58.4216 45.5285 58.4283 45.4061 58.5131L45.3977 58.519Z" fill="#000072"/>
<path d="M41.7423 52.3467C41.3254 53.5947 38.8544 54.5609 37.6759 54.3591C36.0806 54.0861 35.0897 52.6528 34.9549 51.1476C34.7615 48.9863 42.6418 49.6545 41.7423 52.3467Z" fill="#000072"/>
<g opacity="0.5">
<path d="M39.0399 50.836C38.6737 51.4398 36.974 51.4771 36.6581 50.6712C36.464 50.0692 39.3313 50.2656 39.0399 50.836Z" fill="white"/>
</g>
<path d="M62.6688 41.7857C62.4449 42.0623 62.2208 42.2435 61.9357 42.4577C61.7447 42.1173 61.5631 41.8281 61.4225 41.612C61.6709 41.4769 61.8427 41.358 62.0645 41.1867C63.0791 40.4034 63.3221 39.1822 63.4519 39.2069C63.569 39.229 63.4009 40.8815 62.6688 41.7857Z" fill="#000072"/>
<path d="M63.1653 43.8272C62.8911 43.9643 62.586 44.0707 62.2273 44.109C62.1654 43.706 62.0668 43.3008 61.9512 42.917C61.9812 42.9205 62.0111 42.9266 62.0383 42.9327C62.2216 42.9792 62.5248 42.986 62.7977 42.8749C64.7972 42.0609 65.2971 41.0933 65.4074 41.1669C65.5056 41.2333 64.4682 43.1753 63.1653 43.8272Z" fill="#000072"/>
<path d="M65.9675 43.9734C66.03 44.0621 64.4761 45.7008 63.1754 46.0497C62.7997 46.1505 62.4051 46.2192 61.991 46.2235C61.9168 46.2257 61.8467 46.2117 61.78 46.1897C61.9688 45.86 62.0633 45.4608 62.0947 45.029C62.3678 45.0734 62.6627 45.0867 62.9629 45.0525C63.2648 45.0143 63.4222 44.9651 63.735 44.8868C64.817 44.616 65.8899 43.867 65.9675 43.9734Z" fill="#000072"/>
<path d="M53.8757 54.4689C49.7217 53.9226 46.8656 49.5909 47.4965 44.7938C48.1274 39.9967 52.0064 36.5507 56.1605 37.0971C60.3145 37.6434 63.1706 41.9751 62.5397 46.7722C61.9088 51.5693 58.0298 55.0152 53.8757 54.4689Z" fill="#000072"/>
<path d="M51.4847 49.1426C50.1303 48.9645 49.2152 47.4302 49.4407 45.7156C49.6662 44.001 50.9469 42.7555 52.3013 42.9336C53.6556 43.1117 54.5708 44.6461 54.3453 46.3606C54.1198 48.0752 52.839 49.3207 51.4847 49.1426Z" fill="white"/>
<g opacity="0.2">
<path d="M58.6792 50.0159C57.9291 49.9173 57.4448 48.8967 57.5974 47.7363C57.75 46.576 58.4818 45.7153 59.2319 45.814C59.982 45.9126 60.4663 46.9332 60.3137 48.0936C60.1611 49.2539 59.4293 50.1146 58.6792 50.0159Z" fill="white"/>
</g>
<path d="M22.9144 36.4597C23.0381 36.7475 23.1828 36.9538 23.3704 37.2021C23.6012 36.9542 23.8132 36.748 23.9755 36.5951C23.8009 36.4228 23.6858 36.2818 23.5408 36.0846C22.8779 35.1826 22.9437 34.0816 22.8318 34.0731C22.7308 34.0654 22.5098 35.5186 22.9144 36.4597Z" fill="#000072"/>
<path d="M22.0631 38.0944C22.2585 38.2743 22.4859 38.435 22.7721 38.5495C22.9105 38.2185 23.0796 37.8941 23.2578 37.5919C23.2324 37.588 23.2065 37.5864 23.1829 37.5854C23.0222 37.5835 22.7718 37.5201 22.5718 37.3628C21.1069 36.2101 20.9067 35.2677 20.8001 35.3055C20.7051 35.34 21.1349 37.2393 22.0631 38.0944Z" fill="#000072"/>
<path d="M19.7304 37.5808C19.6597 37.6425 20.5797 39.3998 21.5719 39.995C21.8585 40.167 22.1675 40.3158 22.5067 40.4139C22.5672 40.4326 22.6277 40.4366 22.6873 40.433C22.6039 40.1077 22.613 39.7444 22.6811 39.3675C22.4471 39.3432 22.2021 39.2874 21.9631 39.1897C21.7235 39.0882 21.6049 39.0101 21.3651 38.8718C20.5355 38.3933 19.8173 37.5073 19.7304 37.5808Z" fill="#000072"/>
<path d="M27.5836 49.3477C24.0386 49.0087 21.4954 45.2768 21.9032 41.0122C22.311 36.7477 25.5154 33.5654 29.0605 33.9044C32.6056 34.2434 35.1488 37.9753 34.741 42.2399C34.3331 46.5045 31.1287 49.6868 27.5836 49.3477Z" fill="#000072"/>
<path d="M30.2118 45.4252C29.0538 45.3472 28.1985 44.0452 28.3014 42.5171C28.4043 40.989 29.4265 39.8135 30.5845 39.8915C31.7425 39.9694 32.5978 41.2714 32.4948 42.7995C32.3919 44.3277 31.3697 45.5032 30.2118 45.4252Z" fill="white"/>
<g opacity="0.2">
<path d="M24.5457 44.0406C23.9068 43.9668 23.4853 43.0726 23.6042 42.0434C23.7232 41.0142 24.3375 40.2397 24.9764 40.3135C25.6153 40.3873 26.0368 41.2815 25.9178 42.3107C25.7989 43.34 25.1846 44.1145 24.5457 44.0406Z" fill="white"/>
</g>
</svg>
