<svg width="120" height="152" viewBox="0 0 120 152" fill="none" xmlns="http://www.w3.org/2000/svg">
<g opacity="0.25">
<path d="M75.1081 150.519C99.2735 150.052 118.753 143.959 118.617 136.909C118.481 129.859 98.7807 124.522 74.6153 124.988C50.4499 125.455 30.9703 131.548 31.1064 138.598C31.2425 145.648 50.9427 150.985 75.1081 150.519Z" fill="#262F6A"/>
</g>
<path d="M60.0861 126.264C58.27 128.07 44.4854 137.553 31.5147 130.85C12.567 120.531 29.769 94.1993 24.57 83.7409C21.5564 77.6787 15.3532 78.7771 11.2348 81.5071C6.87199 84.3992 3.53823 83.3438 2.07015 81.7352C-1.79745 76.9839 3.57261 67.5341 14.1927 66.0759C22.6866 64.9096 28.9236 69.1807 32.2957 76.2977C39.6209 91.7582 24.2068 113.861 34.0083 122.023C39.0116 126.189 47.9807 123.988 52.1411 120.394" fill="white"/>
<path d="M2.07015 81.7352C3.53741 83.3428 6.87271 84.4 11.2353 81.5071C13.84 79.7794 17.2799 78.7054 20.2183 79.6856C21.9243 80.2539 23.4615 81.5129 24.5697 83.7413C29.7688 94.1999 12.5667 120.53 31.5139 130.85C44.4849 137.553 58.2699 128.07 60.0869 126.264L52.1402 120.395C47.9802 123.988 39.0111 126.188 34.0075 122.022C24.2078 113.861 39.62 91.7593 32.2954 76.2981C30.9208 73.3952 29.0697 70.9669 26.7829 69.1878C23.4616 66.6023 19.2221 65.385 14.1924 66.0767C3.57299 67.5349 -1.79669 76.9845 2.07015 81.7352Z" fill="white"/>
<path d="M2.07015 81.7352C3.53741 83.3428 6.87271 84.4 11.2353 81.5071C13.84 79.7794 17.2799 78.7054 20.2183 79.6856C21.9243 80.2539 23.4615 81.5129 24.5697 83.7413C29.7688 94.1999 12.5667 120.53 31.5139 130.85C44.4849 137.553 58.2699 128.07 60.0869 126.264L52.1402 120.395C47.9802 123.988 39.0111 126.188 34.0075 122.022C24.2078 113.861 39.62 91.7593 32.2954 76.2981C30.9208 73.3952 29.0697 70.9669 26.7829 69.1878C23.4616 66.6023 19.2221 65.385 14.1924 66.0767C3.57299 67.5349 -1.79669 76.9845 2.07015 81.7352Z" fill="white"/>
<path d="M0.843599 78.6596C0.946166 79.7937 1.34717 80.8481 2.0701 81.7352C3.53737 83.3428 6.87266 84.4 11.2353 81.507C13.84 79.7794 17.2799 78.7053 20.2182 79.6856C21.9243 80.2538 23.4614 81.5128 24.5696 83.7413C25.3225 85.2565 25.6047 87.103 25.5971 89.1866C25.6229 88.9142 26.6453 78.0849 20.5161 76.176C12.7114 73.7492 7.26803 86.1821 0.843599 78.6596Z" fill="#EEEEEE"/>
<path d="M0.843599 78.6597C0.946166 79.7937 1.34717 80.8481 2.0701 81.7352C3.53737 83.3428 6.87266 84.4 11.2353 81.507C13.84 79.7794 17.2799 78.7053 20.2182 79.6856C20.4837 78.7561 20.0269 77.7437 20.2301 76.7512C20.2738 76.5366 20.3767 76.348 20.5161 76.176C12.7114 73.7492 7.26803 86.1821 0.843599 78.6597Z" fill="#FF9243"/>
<path d="M31.5139 130.85C44.4849 137.553 58.2699 128.07 60.0869 126.264L52.1402 120.395C50.6674 121.667 48.5922 122.764 46.3043 123.465C44.9702 126.068 41.9934 128.628 35.4002 128.3C26.6938 127.866 23.2836 118.235 22.4924 110.872C21.8655 118.814 23.257 126.352 31.5139 130.85Z" fill="#EEEEEE"/>
<path d="M2.07015 81.7352C3.53741 83.3428 6.87271 84.4 11.2353 81.5071C13.84 79.7794 17.2799 78.7054 20.2183 79.6856C20.4837 78.7561 20.027 77.7437 20.2301 76.7513C20.4494 75.6608 22.1799 75.2515 22.7255 74.2328C23.2841 73.1868 22.7704 71.221 23.9806 70.2506C24.6823 69.6871 25.7352 69.8942 26.7829 69.1877C23.4616 66.6022 19.2221 65.3849 14.1924 66.0766C3.57299 67.5349 -1.79669 76.9845 2.07015 81.7352Z" fill="#FFAC40"/>
<g opacity="0.5">
<path d="M0.981932 79.5095C1.19843 75.7057 4.45269 71.2984 9.85947 69.1165C9.84614 69.2209 9.8461 69.3263 9.85932 69.433C10.0279 70.7549 12.3755 71.5446 15.1051 71.1953C17.8349 70.8481 19.9085 69.4918 19.7421 68.1697C19.7311 68.0893 19.7137 68.0116 19.6875 67.9347C21.6609 68.2325 23.4673 68.8738 25.0938 69.8067C25.6197 69.6907 26.2008 69.5787 26.7829 69.1877C23.4616 66.6022 19.2221 65.3849 14.1924 66.0766C5.05281 67.3309 -0.197827 74.5053 0.981932 79.5095Z" fill="white"/>
</g>
<path d="M0.8436 78.6597C0.946167 79.7937 1.34717 80.8481 2.07011 81.7352C3.53737 83.3428 6.87266 84.4 11.2353 81.507C13.84 79.7794 17.2799 78.7053 20.2182 79.6856C20.4837 78.7561 20.0269 77.7437 20.2301 76.7512C20.2738 76.5366 20.3767 76.348 20.5161 76.176C12.7114 73.7492 7.26803 86.1821 0.8436 78.6597Z" fill="#FF9243"/>
<path d="M41.3538 134.024C38.0383 134.024 34.5601 133.344 31.14 131.577C25.5429 128.529 22.4689 123.897 21.7268 117.406C21.0906 111.846 22.2188 105.86 23.3098 100.071C24.5064 93.7207 25.637 87.7227 23.8389 84.1053C22.8436 82.1036 21.4229 80.8424 19.6157 80.3571C17.3129 79.7384 14.349 80.4239 11.6857 82.1891C6.946 85.3311 3.21835 84.2059 1.46698 82.287C1.45671 82.2756 1.44673 82.264 1.43694 82.2519C-0.162112 80.2873 -0.440877 77.538 0.672462 74.709C2.13156 71.0018 6.51874 66.304 14.0817 65.2656C22.3702 64.1281 29.2781 68.0207 33.0337 75.9472C36.7292 83.747 34.8233 93.1666 33.1417 101.477C31.3985 110.092 29.8933 117.532 34.5308 121.394C39.2563 125.329 47.8007 123.063 51.6076 119.775C51.9489 119.479 52.4647 119.518 52.7595 119.86C53.0544 120.202 53.0162 120.718 52.6746 121.014C48.3384 124.759 38.9405 127.194 33.4862 122.651C28.0982 118.165 29.7704 109.901 31.5406 101.153C33.1716 93.0921 35.02 83.9561 31.5578 76.6483C28.0777 69.3031 21.949 65.8357 14.3038 66.8863C7.43997 67.8287 3.4899 72.0124 2.19263 75.3087C1.30568 77.5625 1.4866 79.7082 2.68861 81.2004C4.01219 82.6319 6.91902 83.3874 10.7839 80.8252C13.8323 78.8048 17.2924 78.0393 20.039 78.7773C22.318 79.3894 24.0885 80.9368 25.3012 83.3766C27.3441 87.486 26.1642 93.7463 24.9151 100.374C22.8362 111.406 20.4795 123.909 31.905 130.132C38.4833 133.531 45.2285 132.465 49.7262 130.972C54.8439 129.272 58.6889 126.501 59.5104 125.684C59.8304 125.365 60.3476 125.367 60.6657 125.687C60.9835 126.008 60.9819 126.526 60.6617 126.844C59.1353 128.362 50.9231 134.024 41.3538 134.024Z" fill="#262F6A"/>
<path d="M97.3307 74.6135C101.939 83.3409 106.425 102.937 81.8957 101.103C68.0658 100.069 60.192 86.597 69.5151 84.0711C73.065 83.2776 82.9997 84.9211 85.3838 83.9858C91.4362 81.6113 95.6883 71.5033 97.3307 74.6135Z" fill="#FC9C24"/>
<path d="M81.8962 101.104C95.1962 102.098 99.9659 96.7916 100.81 90.3345C101.524 84.8819 99.4406 78.6092 97.3303 74.6129C95.6887 71.5036 91.4357 81.6107 85.3841 83.9848C85.373 83.9892 85.3637 83.9928 85.3519 83.9953C82.9116 84.9056 73.0495 83.2815 69.516 84.0714C60.1912 86.5968 68.0655 100.069 81.8962 101.104Z" fill="white"/>
<path d="M81.8962 101.104C95.1962 102.098 99.9659 96.7916 100.81 90.3345L100.807 90.3334C98.1853 95.6562 90.1266 97.4348 87.6582 94.0728C85.1111 90.6026 86.7221 90.2079 85.3519 83.9954C82.9116 84.9057 73.0495 83.2816 69.516 84.0714C60.1912 86.5968 68.0655 100.068 81.8962 101.104Z" fill="#FF9243"/>
<path d="M81.8956 101.104C95.1966 102.097 99.9653 96.7921 100.81 90.3339L100.807 90.3328C98.1849 95.6554 90.1256 97.4346 87.6571 94.0723C85.1115 90.6023 86.722 90.2072 85.3511 83.9947C85.2061 84.0496 85.0346 84.0942 84.8396 84.1316C83.0142 84.4816 79.1324 84.1343 75.5824 83.947C73.1478 83.8219 70.8691 83.7696 69.5162 84.0719C60.1911 86.5966 68.0649 100.069 81.8956 101.104Z" fill="#EEEEEE"/>
<path d="M80.2772 91.7228C85.3173 92.7768 84.6064 87.6485 84.7511 84.0124C82.7871 84.1921 78.7237 83.4215 74.9941 82.8543C74.0154 84.2381 72.5269 85.9984 70.712 87.23C68.663 88.6187 78.4186 91.334 80.2772 91.7228Z" fill="white"/>
<path d="M84.9903 101.906C83.9857 101.906 82.9371 101.866 81.845 101.784C72.4403 101.081 65.3196 94.6275 64.811 89.2756C64.5379 86.4026 66.1877 84.2654 69.337 83.4122C69.3467 83.4095 69.3568 83.4071 69.3665 83.4048C71.205 82.9939 74.5379 83.1953 77.7622 83.3903C80.7151 83.5688 84.0625 83.771 85.1351 83.3503C87.9707 82.2378 90.4444 79.2628 92.4319 76.8726C94.2603 74.6738 95.4707 73.2226 96.6977 73.3497C97.0533 73.3869 97.5564 73.5811 97.9332 74.2945C101.178 80.4383 103.548 89.7834 99.5493 95.901C96.9406 99.8922 92.0505 101.906 84.9903 101.906ZM69.6781 84.7338C67.1723 85.4174 65.9588 86.943 66.1682 89.1464C66.3847 91.4254 68.1126 94.053 70.7903 96.1751C73.8568 98.6056 77.819 100.114 81.9465 100.423C90.1813 101.038 95.7209 99.2659 98.4086 95.1536C102.337 89.1428 99.2008 79.6149 96.728 74.9327V74.9325C96.6272 74.7415 96.5571 74.7075 96.5564 74.7073C96.0909 74.6129 94.5174 76.4979 93.4798 77.746C91.3922 80.2564 88.7944 83.3808 85.6326 84.6212C84.2801 85.1517 81.2215 84.9667 77.6801 84.7529C74.5597 84.5643 71.334 84.3693 69.6781 84.7338Z" fill="#262F6A"/>
<path d="M96.7161 69.9127C93.1015 76.9449 85.5103 81.0063 77.4346 83.1475L74.8582 76.6914C85.1866 75.4067 92.0058 72.8124 96.7161 69.9127Z" fill="white"/>
<path d="M106.503 133.709C104.533 133.944 97.5218 132.606 95.7197 132.517C93.0486 132.385 87.8896 132.822 82.3158 133.764C82.3158 133.764 88.6063 112.072 88.5894 109.564C99.0181 107.056 109.123 113.89 109.123 113.89C109.123 113.89 109.211 133.386 106.503 133.709Z" fill="#777781"/>
<path d="M108.759 124.649C108.421 129.223 107.769 133.558 106.503 133.708C104.533 133.944 97.5218 132.605 95.7197 132.517C93.0484 132.385 87.8891 132.823 82.3152 133.764C82.3152 133.764 88.6068 112.072 88.5888 109.564C90.4189 109.124 92.241 108.97 93.9973 109.02C102.254 109.244 109.122 113.89 109.122 113.89C109.122 113.89 109.146 119.428 108.759 124.649Z" fill="white"/>
<path d="M108.759 124.649C108.421 129.223 107.769 133.558 106.503 133.708C104.533 133.944 97.5218 132.605 95.7197 132.517C93.0484 132.385 87.8891 132.823 82.3152 133.764C82.3152 133.764 88.6068 112.072 88.5888 109.564C90.4189 109.124 92.241 108.97 93.9973 109.02C94.4039 111.382 95.0379 115.557 95.4884 120.889C95.9211 126.016 101.07 123.487 101.744 120.134C102.442 116.66 104.176 115.653 104.176 115.653C104.176 115.653 106.543 120.198 108.759 124.649Z" fill="#EEEEEE"/>
<path d="M82.3158 134.571C82.0879 134.571 81.8683 134.474 81.7139 134.301C81.5295 134.093 81.4643 133.806 81.5416 133.539C84.0572 124.865 87.7951 111.323 87.7832 109.569C87.7806 109.194 88.0368 108.867 88.4013 108.779C99.0522 106.218 109.15 112.934 109.575 113.221C109.795 113.371 109.928 113.62 109.929 113.887C109.93 113.936 109.948 118.845 109.633 123.73C109.039 132.957 107.823 134.364 106.598 134.51C106.598 134.51 106.598 134.51 106.598 134.51C105.246 134.672 102.026 134.197 99.1858 133.779C97.7032 133.56 96.3025 133.354 95.6801 133.323C92.8969 133.185 87.7059 133.671 82.4499 134.56C82.4053 134.567 82.3603 134.571 82.3158 134.571ZM94.6788 131.686C95.0686 131.686 95.4295 131.694 95.7593 131.711C96.46 131.745 97.832 131.947 99.4208 132.182C101.856 132.541 105.181 133.031 106.361 132.912C106.55 132.76 107.549 131.563 108.055 123.132C108.284 119.318 108.314 115.586 108.317 114.334C106.502 113.219 98.0276 108.42 89.3353 110.224C88.7946 114.011 84.7607 128.187 83.4443 132.762C87.7555 132.084 91.9233 131.686 94.6788 131.686ZM106.407 132.907C106.407 132.907 106.407 132.908 106.407 132.908C106.407 132.908 106.407 132.907 106.407 132.907Z" fill="#262F6A"/>
<path d="M101.509 129.274C102.502 131.746 104.171 134.092 108.395 133.657C114.542 133.023 119.972 122.918 118.547 115.104C117.489 109.305 110.873 108.019 106.538 111.433C104.494 113.042 102.555 116.79 101.509 121.742L101.509 129.274Z" fill="#777781"/>
<path d="M116.756 126.205C114.822 130.214 111.714 133.315 108.396 133.656C104.17 134.091 102.502 131.745 101.51 129.273V121.742C101.565 121.486 101.622 121.233 101.678 120.984L101.68 120.982C102.754 116.407 104.601 112.959 106.538 111.432C110.873 108.019 117.49 109.305 118.547 115.103C119.202 118.702 118.405 122.783 116.756 126.205Z" fill="white"/>
<g opacity="0.3">
<path d="M118.749 118.647C118.719 118.056 118.651 117.47 118.547 116.898C117.49 111.1 110.873 109.814 106.538 113.227C104.601 114.754 102.584 117.167 101.51 121.742C101.565 121.486 101.622 121.233 101.678 120.984L101.68 120.982C102.754 116.407 104.601 112.959 106.538 111.432C110.873 108.019 117.49 109.305 118.547 115.103C118.756 116.247 118.817 117.442 118.749 118.647Z" fill="white"/>
</g>
<path d="M116.756 126.205C114.822 130.215 111.714 133.315 108.396 133.656C104.17 134.091 102.502 131.745 101.51 129.273V121.742C101.565 121.486 101.622 121.233 101.678 120.984L102.138 119.737C101.775 121.636 104.004 130.664 109.707 130.946C112.418 131.08 114.855 128.863 116.756 126.205Z" fill="#EEEEEE"/>
<path d="M114.7 126.005C115.614 122.902 114.647 119.883 112.54 119.262C110.432 118.641 107.982 120.653 107.068 123.757C106.154 126.86 107.121 129.879 109.229 130.5C111.336 131.121 113.786 129.108 114.7 126.005Z" fill="#FFAAAA"/>
<path d="M118.013 119.012C118.349 117.872 117.993 116.763 117.219 116.535C116.445 116.307 115.545 117.046 115.209 118.186C114.874 119.326 115.229 120.435 116.003 120.663C116.777 120.891 117.677 120.152 118.013 119.012Z" fill="#FFAAAA"/>
<path d="M110.396 117.66C110.732 116.52 110.376 115.411 109.602 115.183C108.828 114.955 107.928 115.694 107.592 116.834C107.257 117.974 107.612 119.083 108.386 119.311C109.16 119.539 110.06 118.8 110.396 117.66Z" fill="#FFAAAA"/>
<path d="M114.715 116.453C115.087 115.188 114.693 113.957 113.834 113.704C112.975 113.451 111.977 114.272 111.604 115.536C111.231 116.801 111.626 118.032 112.485 118.285C113.344 118.538 114.342 117.718 114.715 116.453Z" fill="#FFAAAA"/>
<g opacity="0.3">
<path d="M42.771 116.321C40.7192 113.926 36.3558 116.602 36.8406 118.293C37.1643 119.422 38.7009 118.019 40.9652 117.669C42.3403 117.456 43.257 116.888 42.771 116.321Z" fill="white"/>
</g>
<path d="M101.509 129.274C102.318 130.268 103.054 131.212 103.944 131.827C105.682 133.093 108.123 133.107 110.061 132.266C115.131 129.784 117.969 123.129 117.94 117.654C117.929 115.486 117.444 113.091 115.647 111.728C113.495 110.024 110.304 110.143 107.972 111.475C104.611 113.358 102.875 118.211 101.509 121.742C101.81 117.631 103.347 112.246 107.124 110.021C110.013 108.228 114.038 108.115 116.763 110.328C120.909 113.642 119.814 120.785 118.11 125.131C116.659 128.698 114.43 132.258 110.796 133.936C108.902 134.763 106.68 134.82 104.752 134.051C102.832 133.269 101.642 131.279 101.509 129.274Z" fill="#262F6A"/>
<path d="M64.7615 138.219C62.4809 138.486 60.9319 138.752 59.4527 138.508C54.6482 137.713 50.9941 136.002 48.3845 133.116C45.9066 130.38 44.3695 126.587 43.6798 121.519C43.6658 121.417 43.6519 121.315 43.6419 121.213C44.218 122.902 44.9537 124.273 45.8787 124.729C46.9293 125.244 48.0437 125.518 49.5548 125.244C52.0905 124.782 60.8482 133.952 64.7615 138.219Z" fill="#EEEEEE"/>
<path d="M94.3968 115.107C95.1352 106.953 89.0694 98.3755 84.7541 84.1012L83.7742 76.8205C80.3022 70.6092 54.7889 65.5068 54.2071 77.8282C53.6963 88.6459 41.1477 104.517 43.6803 121.519C45.2279 131.909 50.089 136.961 59.4529 138.509C61.4364 138.837 63.5437 138.247 67.3722 137.964C72.453 137.59 87.9713 136.375 91.4671 128.645C91.4671 128.645 92.3494 126.587 93.2273 122.539C94.0515 118.738 94.3968 115.107 94.3968 115.107Z" fill="white"/>
<path d="M94.3964 115.107C94.3964 115.107 94.0516 118.738 93.228 122.539C92.3487 126.587 91.4676 128.645 91.4676 128.645C87.9718 136.375 72.4523 137.59 67.3724 137.964C63.5433 138.247 61.4362 138.836 59.4536 138.51C51.215 137.146 46.4607 133.073 44.3843 125.037C44.0989 123.939 43.8652 122.767 43.6794 121.519C41.1471 104.517 53.6956 88.6453 54.207 77.8282C54.7893 65.5075 80.3021 70.6098 83.7749 76.82L84.7538 84.1019C88.4641 96.3746 93.4693 104.436 94.3294 111.639C94.4692 112.814 94.4999 113.965 94.3964 115.107Z" fill="white"/>
<path d="M94.3964 115.107C94.3964 115.107 94.0516 118.738 93.228 122.539C92.3487 126.587 91.4676 128.645 91.4676 128.645C87.9718 136.375 72.4523 137.59 67.3724 137.964C63.5433 138.247 61.4362 138.836 59.4536 138.51C51.215 137.146 46.4607 133.073 44.3843 125.037C44.0989 123.939 43.8652 122.767 43.6794 121.519C41.6259 107.737 49.4834 94.6981 52.8049 84.4917C53.5807 82.1066 54.1093 79.8771 54.207 77.8282C54.7894 65.5075 80.3021 70.6098 83.7749 76.82L84.3036 80.7509L84.7538 84.1019C88.4641 96.3746 93.4693 104.436 94.3294 111.639C94.4692 112.814 94.4999 113.965 94.3964 115.107Z" fill="white"/>
<path d="M53.8152 111.904C56.4654 110.513 52.1076 101.415 53.4895 94.1181C54.2931 89.8748 70.0766 116.49 70.0766 116.49" fill="#EEEEEE"/>
<path d="M84.3036 80.7509C73.4119 85.6266 59.3387 85.7975 52.8049 84.4917C53.5807 82.1066 54.1093 79.8771 54.207 77.8282C54.7894 65.5075 80.3021 70.6098 83.7749 76.82L84.3036 80.7509Z" fill="#EEEEEE"/>
<path d="M96.7161 69.9127C93.1015 76.9449 85.5103 81.0063 77.4346 83.1475L74.8582 76.6914C85.1866 75.4067 92.0058 72.8124 96.7161 69.9127Z" fill="#EEEEEE"/>
<path d="M94.3964 115.107C94.3964 115.107 94.0516 118.738 93.228 122.539C92.3487 126.587 91.4676 128.645 91.4676 128.645C87.9718 136.375 72.4523 137.59 67.3724 137.964C63.5433 138.247 61.4362 138.836 59.4536 138.51C51.215 137.146 46.4607 133.073 44.3843 125.037C45.7577 125.621 47.4031 125.799 49.5543 125.244C52.6153 124.455 61.2715 113.169 71.6459 119.274C79.8309 124.09 92.8526 122.31 94.3295 111.639C94.4692 112.814 94.4999 113.965 94.3964 115.107Z" fill="#EEEEEE"/>
<path d="M92.7414 116.184C92.7204 117.448 92.5958 118.723 92.3411 119.994C88.7763 137.786 64.8324 133.31 61.7829 132.259C58.4767 131.121 58.4787 125.385 59.7429 118.733C63.2119 117.218 67.2766 116.703 71.6459 119.274C78.4881 123.299 88.7074 122.717 92.7414 116.184Z" fill="#CDCDCD"/>
<path d="M87.1931 96.4575C89.1477 101.281 94.1984 110.721 92.341 119.994C88.777 137.786 64.832 133.31 61.783 132.259C53.1389 129.279 67.1132 94.8657 67.1132 94.8657C67.1132 94.8657 68.5759 87.4918 75.3618 86.1544C82.3727 84.7726 84.9041 90.8084 87.1931 96.4575Z" fill="#E7E7E7"/>
<path d="M92.7414 116.184C92.7204 117.448 92.5958 118.723 92.3411 119.994C88.7763 137.786 64.8324 133.31 61.7829 132.259C58.4767 131.121 58.4787 125.385 59.7429 118.733C63.2119 117.218 67.2766 116.703 71.6459 119.274C78.4881 123.299 88.7074 122.717 92.7414 116.184Z" fill="#CDCDCD"/>
<path d="M83.7741 76.8205C82.7767 75.7375 81.5134 75.0873 80.2166 74.4677C75.0611 72.1251 69.2909 70.8546 63.628 71.3043C59.6615 71.6229 55.2566 73.3107 55.085 77.8708C54.9079 80.926 53.9798 83.8109 52.9591 86.6396C50.9234 92.1543 48.4309 97.4479 46.6336 103.019C44.853 108.48 43.7513 114.258 44.3418 119.989C44.8344 124.188 45.8891 128.463 48.5151 131.807C51.1338 135.156 55.1451 136.851 59.3093 137.549C60.6743 137.823 62.0165 137.613 63.4099 137.453C67.7381 136.933 72.1688 136.84 76.4463 136.005C80.656 135.189 84.8678 134.06 88.4501 131.684C89.6117 130.879 90.6621 129.893 91.4671 128.645C90.6113 131.576 87.938 133.659 85.2999 134.976C82.6077 136.319 79.6852 137.069 76.7608 137.661C72.4091 138.582 68.0191 138.708 63.6337 139.286C62.1335 139.472 60.5148 139.675 58.9919 139.361C54.4883 138.613 49.934 136.647 47.1048 132.919C45.2055 130.49 44.0785 127.567 43.3912 124.606C41.6013 117.27 42.7592 109.578 45.0916 102.52C47.2655 95.5223 50.7333 88.9907 52.6573 81.944C53.0081 80.5626 53.2667 79.1673 53.3291 77.7876C53.3837 76.1575 53.9272 74.4764 54.9751 73.1941C58.0484 69.5383 63.5802 69.1512 67.9999 69.4758C72.7814 69.88 81.8552 71.8838 83.7741 76.8205Z" fill="#262F6A"/>
<path d="M94.3968 115.107C94.1677 109.6 91.7167 104.739 89.7153 99.7133C87.6445 94.6744 85.7011 89.4977 84.7541 84.1012C85.3231 85.3516 85.8417 86.6109 86.3873 87.8584C87.9472 91.5034 89.6997 95.4495 91.2061 99.1001C93.1796 104.103 95.4813 109.616 94.3968 115.107Z" fill="#262F6A"/>
<path d="M71.3736 129.486C71.3736 129.486 71.3686 129.494 71.361 129.511C71.3686 129.496 71.3736 129.486 71.3736 129.486Z" fill="#F8D2B6"/>
<path d="M67.7593 90.0701C68.9248 95.927 71.1593 101.768 75.6608 107.017C78.658 110.512 83.8335 114.81 84.3045 121.213C84.7541 127.324 79.3558 129.132 75.9861 128.716C71.0436 128.107 70.6561 124.107 67.405 121.742C54.8774 112.442 53.4895 101.064 53.4895 90.5982L67.7593 90.0701Z" fill="white"/>
<path d="M84.3323 121.89C84.3476 127.459 79.2275 129.116 75.9864 128.716C71.0444 128.108 70.6555 124.108 67.4049 121.742C54.8775 112.442 53.4887 101.064 53.4887 90.5982L67.7593 90.0701C68.9239 95.927 71.1593 101.769 75.6607 107.017C78.6585 110.512 83.8342 114.809 84.3054 121.214C84.3227 121.444 84.3323 121.671 84.3323 121.89Z" fill="white"/>
<path d="M84.3323 121.89C84.3476 127.459 79.2275 129.116 75.9864 128.716C71.0444 128.108 70.6555 124.108 67.4049 121.742C54.8775 112.442 53.4887 101.064 53.4887 90.5982C53.4887 90.5982 53.9599 100.807 58.5246 108.712C61.2619 113.452 70.4525 119.985 72.4963 122.514C75.021 125.638 81.3268 126.429 84.3323 121.89Z" fill="#EEEEEE"/>
<path d="M67.7593 90.0701C69.5557 95.7107 71.9715 101.17 75.7584 105.741C78.9428 109.553 83.059 113.119 84.5417 118.109C85.1404 120.169 85.4156 122.42 84.7534 124.507C83.7344 127.819 80.1965 129.655 76.8948 129.626C72.9442 129.583 71.1105 127.621 69.0009 124.659C68.4127 123.888 67.8097 123.194 67.1068 122.644L65.9205 121.735C59.8219 117.075 55.2756 110.273 53.9197 102.662C53.1599 98.6796 53.125 94.6126 53.4895 90.5982L53.7751 93.5879C53.8768 94.5811 53.9947 95.5702 54.1212 96.5548C55.3756 106.45 59.0987 114.13 67.0296 120.318C67.0295 120.318 68.2197 121.234 68.2197 121.234C69.0916 121.919 69.8011 122.754 70.4209 123.57C72.2501 126.098 73.5692 127.855 76.9027 127.917C79.5649 127.956 82.362 126.613 83.2023 123.996C84.0146 121.311 83.1508 118.395 81.8633 115.99C80.4848 113.446 78.3961 111.28 76.4003 109.152C74.2869 106.956 72.4133 104.446 71.0354 101.716C69.1876 98.1047 68.0752 94.1038 67.7593 90.0701Z" fill="#262F6A"/>
<path d="M81.4469 120.21C82.8065 122.245 83.397 125.595 82.2372 127.86L80.8799 126.989C81.5759 126.136 81.8912 124.964 81.9525 123.837C82.0006 122.634 81.9342 121.334 81.4469 120.21Z" fill="#262F6A"/>
<path d="M77.459 121.396C78.7142 123.562 79.319 126.76 78.297 129.145L76.8943 128.349C77.5555 127.448 77.8206 126.231 77.8977 125.089C77.9532 123.858 77.8807 122.574 77.459 121.396Z" fill="#262F6A"/>
<path d="M69.9028 141.318C69.1034 141.422 60.2461 141.07 55.045 135.121C55.045 135.121 50.5954 130.986 49.5548 125.244C47.8603 115.893 53.49 112.016 53.49 112.016C63.049 108.588 68.4694 118.535 68.4694 118.535C68.4694 118.535 68.6289 120.156 68.8482 122.532C69.4463 129.045 70.4909 141.242 69.9028 141.318Z" fill="white"/>
<path d="M69.9028 141.318C69.1034 141.422 60.2461 141.07 55.045 135.121C55.045 135.121 50.5954 130.986 49.5548 125.244C49.5548 125.244 51.4327 124.874 53.7173 127.101C55.5115 128.85 57.1541 130.424 58.2506 127.826C59.347 125.228 59.1237 123.781 60.4195 121.519C60.9338 120.622 64.6059 121.339 68.8482 122.532C69.4463 129.045 70.4909 141.242 69.9028 141.318Z" fill="#EEEEEE"/>
<path d="M55.0447 135.12C58.9397 138.01 63.4486 139.774 68.2146 140.429C68.7485 140.49 69.2715 140.534 69.7973 140.518C69.6148 140.527 69.343 140.692 69.2543 140.874C69.1966 140.987 69.2179 140.968 69.2161 140.954C69.2198 140.938 69.2252 140.904 69.23 140.869C69.3081 140.026 69.2587 139.132 69.2321 138.233C68.9183 131.701 68.2801 125.134 67.6679 118.615L67.7624 118.922C67.5863 118.665 67.3676 118.363 67.1591 118.087C64.8687 115.049 61.7285 112.395 57.8357 111.906C56.4004 111.697 54.9454 111.803 53.4895 112.016C56.146 110.388 59.6968 110.304 62.5211 111.652C65.387 112.992 67.7326 115.341 69.1776 118.149C69.2314 118.247 69.2629 118.351 69.2725 118.456C69.591 121.735 69.8893 125.011 70.1646 128.293C70.4645 132.43 70.9223 136.534 70.8615 140.715C70.8204 141.073 70.85 141.282 70.658 141.668C70.5691 141.818 70.4454 141.956 70.2717 142.038C70.1459 142.097 69.9932 142.128 69.8775 142.131C64.3185 142.119 57.9877 140.179 55.0447 135.12Z" fill="#262F6A"/>
<path d="M71.3892 140.977C79.5236 138.551 76.4725 123.95 74.4763 120.179C71.8342 114.6 65.6948 113.693 61.9091 115.968C60.3718 116.892 55.9875 120.607 57.2588 128.103C58.5979 135.999 64.5209 142.982 71.3892 140.977Z" fill="white"/>
<g opacity="0.3">
<path d="M75.9861 124.709C75.6506 123.574 75.2847 122.633 74.9492 121.999C72.307 116.42 66.1665 115.512 62.3806 117.787C60.8427 118.711 56.4601 122.427 57.73 129.924C57.7757 130.197 57.828 130.468 57.8868 130.739C57.6211 129.88 57.412 128.998 57.2595 128.103C55.9874 120.606 60.3723 116.892 61.9101 115.968C65.6938 113.693 71.8343 114.601 74.4766 120.178C74.9776 121.126 75.546 122.757 75.9861 124.709Z" fill="white"/>
</g>
<path d="M71.3899 140.976C65.7591 142.62 60.76 138.222 58.4075 132.23C61.1913 136.905 65.6803 139.7 70.5742 138.135C75.5025 136.559 76.6592 130.463 76.0166 124.845C77.3017 130.651 77.4324 139.174 71.3899 140.976Z" fill="#EEEEEE"/>
<path d="M69.0112 142.13C67.2547 142.13 65.5204 141.613 63.8934 140.593C60.212 138.285 57.3653 133.551 56.4641 128.238C54.977 119.471 60.8228 115.679 61.4942 115.276C63.6784 113.963 66.5161 113.644 69.0867 114.422C71.7581 115.231 73.9274 117.147 75.197 119.817C76.8664 122.988 78.7728 131.725 76.4815 137.198C75.4965 139.55 73.8606 141.082 71.6193 141.75C71.6179 141.75 71.6163 141.751 71.6148 141.751C70.7488 142.004 69.8772 142.13 69.0112 142.13ZM66.2371 115.616C64.8402 115.616 63.4703 115.971 62.3241 116.66C61.7491 117.005 56.7459 120.258 58.0536 127.968C58.88 132.841 61.4455 137.154 64.7489 139.225C66.8053 140.514 68.963 140.843 71.1613 140.202C72.9161 139.678 74.2059 138.457 74.9947 136.573C77.0657 131.627 75.268 123.398 73.764 120.557C73.7584 120.546 73.753 120.535 73.7479 120.525C72.375 117.626 70.2016 116.447 68.6198 115.967C67.8415 115.732 67.0349 115.616 66.2371 115.616Z" fill="#262F6A"/>
<path d="M69.5308 137.131C72.2499 136.542 73.86 133.323 73.127 129.941C72.3941 126.559 69.5957 124.295 66.8767 124.884C64.1576 125.474 62.5476 128.693 63.2805 132.075C64.0134 135.457 66.8118 137.72 69.5308 137.131Z" fill="#FFAAAA"/>
<path d="M71.5304 124.251C72.5292 124.035 73.1206 122.853 72.8514 121.61C72.5821 120.368 71.5542 119.536 70.5554 119.753C69.5567 119.969 68.9652 121.152 69.2345 122.394C69.5037 123.636 70.5316 124.468 71.5304 124.251Z" fill="#FFAAAA"/>
<path d="M62.2221 127.256C63.2209 127.039 63.8123 125.857 63.5431 124.614C63.2739 123.372 62.246 122.54 61.2472 122.757C60.2484 122.973 59.657 124.156 59.9262 125.398C60.1954 126.64 61.2233 127.472 62.2221 127.256Z" fill="#FFAAAA"/>
<path d="M66.2298 124.018C67.338 123.778 67.9943 122.466 67.6956 121.087C67.3968 119.709 66.2562 118.786 65.148 119.027C64.0397 119.267 63.3835 120.579 63.6822 121.957C63.9809 123.336 65.1215 124.258 66.2298 124.018Z" fill="#FFAAAA"/>
<path d="M96.5132 50.8285C98.6628 45.9424 104.28 42.4637 109.45 41.729C110.01 41.6669 110.573 41.612 111.135 41.5929C110.462 41.9484 109.777 42.2141 109.114 42.5278C104.483 44.6065 100.199 47.2871 96.5132 50.8285Z" fill="#262F6A"/>
<path d="M97.9209 56.2925C101.701 52.8128 108.095 51.0976 112.766 53.7157C107.631 52.7346 102.601 54.2263 97.9209 56.2925Z" fill="#262F6A"/>
<path d="M88.1376 33.4869L75.5393 26.35L60.9814 18.1056C66.7607 9.54854 79.288 -0.88574 84.0245 0.971115C84.9217 1.32418 85.7528 2.34378 86.4793 3.86992C89.2064 9.59381 90.4582 22.4065 88.1376 33.4869Z" fill="white"/>
<path d="M88.1376 33.4868L75.5393 26.35C77.1658 18.6133 81.509 0.816534 86.4792 3.86991C89.2064 9.5938 90.4582 22.4065 88.1376 33.4868Z" fill="#E7E7E7"/>
<g opacity="0.5">
<path d="M86.7825 4.54991C86.2363 3.70894 85.6411 3.13966 85.0173 2.89428C80.4563 1.10389 68.6856 10.7018 62.6545 19.0538L60.9813 18.1057C66.7607 9.54857 79.288 -0.885709 84.0244 0.971145C85.0479 1.37239 85.9875 2.64898 86.7825 4.54991Z" fill="white"/>
</g>
<path d="M88.1377 34.2447C88.0862 34.2447 88.034 34.2394 87.9817 34.2285C87.5725 34.1426 87.3105 33.7409 87.3965 33.3313C90.4142 18.9306 87.3227 3.07923 83.7496 1.67748C81.8718 0.941413 77.9867 2.6438 73.3569 6.2324C68.9006 9.68644 64.3991 14.3987 61.609 18.5302C61.375 18.8767 60.9044 18.9678 60.5583 18.7335C60.212 18.4991 60.1212 18.0281 60.3553 17.6816C63.2291 13.426 67.856 8.57979 72.4306 5.03421C75.4458 2.69718 80.9988 -1.02942 84.3015 0.266658C89.2974 2.22641 91.735 20.0061 88.8776 33.6426C88.8027 33.9995 88.4882 34.2447 88.1377 34.2447Z" fill="#262F6A"/>
<path d="M85.4639 23.0326C82.6324 20.3177 80.3458 18.5283 78.3954 17.233C76.6853 16.1009 75.2355 15.3508 73.9036 14.6991C73.9517 13.2003 81.5574 3.6126 83.4236 5.88703C83.9817 6.56704 84.4802 7.66285 84.8913 8.99842C86.1705 13.1342 86.6239 19.5649 85.4639 23.0326Z" fill="#F17E80"/>
<path d="M84.8913 8.99842C84.1693 8.35671 83.1121 7.63157 82.3265 7.9802C80.9891 8.57445 78.8667 13.7783 78.3954 17.233C76.6853 16.1009 75.2355 15.3508 73.9036 14.6991C73.9517 13.2003 81.5574 3.6126 83.4236 5.88703C83.9816 6.56704 84.4802 7.66285 84.8913 8.99842Z" fill="#FF5C64"/>
<path d="M85.8013 24.4051L84.94 23.5795C79.7539 18.6084 76.4805 16.8032 73.5723 15.3803L73.1331 15.1653L73.1482 14.676C73.2027 12.9239 78.7882 5.96639 81.8042 4.93762C83.0419 4.51536 83.7167 5.04978 84.0087 5.40566C86.5532 8.50683 87.7711 18.526 86.1806 23.2731L85.8013 24.4051ZM74.8219 14.3082C77.5133 15.6562 80.5706 17.4471 85.0574 21.6085C86.0396 16.7803 84.706 8.64254 82.8393 6.36763C82.8095 6.33101 82.7392 6.24544 82.4001 6.3386C80.1379 6.95869 75.7326 12.4574 74.8219 14.3082Z" fill="#262F6A"/>
<path d="M54.9789 21.0007L40.5059 38.3664L34.2511 45.8707C27.5806 36.0058 24.0395 22.8289 25.0379 16.7895C25.2434 15.5469 25.6406 14.6086 26.2419 14.0598C30.1626 10.4858 46.1996 15.3004 54.9789 21.0007Z" fill="#FFAC40"/>
<path d="M40.5059 38.3664L34.2511 45.8707C27.5806 36.0058 24.0395 22.829 25.0379 16.7895C26.2502 14.8871 28.3801 13.3847 31.1374 18.7637C33.9963 24.3337 38.1423 33.2335 40.5059 38.3664Z" fill="#FF9243"/>
<g opacity="0.5">
<path d="M54.9789 21.0008L54.0663 22.0947C45.0652 16.8424 29.4709 13.1294 26.6064 15.1083C24.2777 16.7171 25.6217 25.423 27.544 32.2854C24.6178 23.8669 23.9612 16.1374 26.2419 14.0598C30.1626 10.4858 46.1996 15.3005 54.9789 21.0008Z" fill="white"/>
</g>
<path d="M34.2527 46.6279C34.01 46.6279 33.7716 46.5112 33.6253 46.2949C25.8062 34.7329 21.6017 17.2617 25.7324 13.4982C28.4437 11.0278 35.1967 12.326 38.9807 13.3196C44.7371 14.8313 51.0251 17.5306 55.3908 20.3645C55.7415 20.5921 55.8414 21.0611 55.6141 21.4123C55.3868 21.7636 54.9177 21.8636 54.5674 21.6359C45.8937 16.0058 30.2605 11.421 26.751 14.619C23.7906 17.3162 26.6294 33.2473 34.8786 45.4454C35.1129 45.7918 35.0223 46.2629 34.6762 46.4975C34.5463 46.5857 34.3987 46.6279 34.2527 46.6279Z" fill="#262F6A"/>
<path d="M55.8374 13.8967C60.5428 12.7869 69.32 10.7422 78.1338 14.2292C90.6371 18.4385 97.0307 35.2657 99.3865 43.9566C100.449 45.3142 103.965 50.84 102.879 57.5905C101.679 64.8002 94.25 75.6541 70.7725 80.8066C49.9493 84.9133 35.4514 79.8503 31.2812 64.5793C28.2869 54.1177 29.7429 43.2586 31.7064 37.071C31.7064 37.071 39.7142 22.3287 44.3427 19.2553C47.8427 16.9311 55.8374 13.8967 55.8374 13.8967Z" fill="white"/>
<path d="M31.2814 64.58C35.4507 79.8498 49.9489 84.914 70.7728 80.8058C94.2493 75.6534 101.679 64.8002 102.878 57.5912C103.005 56.8032 103.07 56.0324 103.079 55.2828C103.147 51.4049 101.836 48.0988 100.699 46.0113C100.173 45.0429 99.6837 44.3373 99.387 43.9568C97.0307 35.2657 90.637 18.4381 78.1336 14.2292C69.3203 10.7418 60.5421 12.7866 55.8376 13.8973C55.8376 13.8973 47.842 16.9306 44.3421 19.2555C39.7137 22.3283 31.707 37.0712 31.707 37.0712C29.7429 43.2585 28.2863 54.1177 31.2814 64.58Z" fill="white"/>
<path d="M31.2814 64.58C35.4507 79.8498 49.9489 84.914 70.7728 80.8058C94.2493 75.6534 101.679 64.8002 102.878 57.5912C103.005 56.8032 103.07 56.0324 103.079 55.2828C103.147 51.4049 101.836 48.0988 100.699 46.0113C100.173 45.0429 99.6837 44.3373 99.387 43.9568C97.0307 35.2657 90.637 18.4381 78.1336 14.2292C69.3203 10.7418 60.5421 12.7866 55.8376 13.8973C55.8376 13.8973 47.842 16.9306 44.3421 19.2555C39.7137 22.3283 31.707 37.0712 31.707 37.0712C29.7429 43.2585 28.2863 54.1177 31.2814 64.58Z" fill="white"/>
<path d="M37.8463 75.717C44.8634 82.0826 56.2875 83.6637 70.7725 80.8059C86.4393 77.3675 94.9594 71.39 99.2517 65.6519C93.5653 70.5883 84.6414 75.2352 71.0414 78.22C57.2921 80.9337 45.9366 80.174 37.8463 75.717Z" fill="#EEEEEE"/>
<path d="M30.7133 40.8621C35.3789 42.9574 43.138 44.7967 50.7164 39.2028C59.9127 32.4154 57.5739 21.0886 54.6911 14.3445C52.3531 15.273 47.0252 17.473 44.3422 19.2561C39.7137 22.3276 31.7078 37.0709 31.7078 37.0709C31.352 38.1912 31.0126 39.4657 30.7133 40.8621Z" fill="#FFAC40"/>
<path d="M44.3422 19.256L56.3519 19.1837C55.8827 17.379 55.2765 15.7005 54.6478 14.2424C51.3031 15.3361 47.9599 16.7159 44.3422 19.256Z" fill="#FFAC40"/>
<path d="M38.6513 62.737C33.9603 61.6452 29.1135 61.6585 24.396 62.4879C24.2079 62.5211 23.1956 62.7061 23.0236 62.728C22.7614 62.7861 22.4684 62.8574 22.2048 62.9099C21.838 62.9864 21.469 63.0611 21.0927 63.1226C21.6731 62.8096 22.278 62.5246 22.879 62.2502C26.4995 60.7868 30.5562 60.3597 34.3888 61.1561C35.8774 61.474 37.3524 61.9438 38.6513 62.737Z" fill="#262F6A"/>
<path d="M40.4021 69.3746C35.2754 70.2387 30.1697 71.8072 26.3756 75.5315C28.8813 70.6982 35.2447 68.5632 40.4021 69.3746Z" fill="#262F6A"/>
<path d="M52.0873 34.5628C52.0873 34.5628 54.9709 28.3331 57.6569 28.9364C60.3429 29.5397 60.4622 32.3849 59.0993 33.4655C57.1195 35.0351 52.0873 34.5628 52.0873 34.5628Z" fill="#262F6A"/>
<path d="M88.2947 29.3009C88.2947 29.3009 84.86 24.3411 82.6262 25.2657C80.3924 26.1904 80.7179 28.6708 82.0604 29.4019C84.0105 30.4637 88.2947 29.3009 88.2947 29.3009Z" fill="#262F6A"/>
<path d="M82.0236 53.3336C82.3178 54.4877 81.2976 55.8351 80.47 56.7003C79.897 57.2994 79.0334 57.5205 78.2439 57.2704C77.1036 56.9091 75.5637 56.2173 75.2695 55.0632C74.7917 53.1886 81.5458 51.459 82.0236 53.3336Z" fill="#262F6A"/>
<g opacity="0.35">
<path d="M80.3183 53.3378C80.3727 53.5513 79.9472 53.8612 79.6121 54.0679C79.38 54.211 79.0605 54.2928 78.7884 54.2788C78.3955 54.2585 77.8738 54.1912 77.8194 53.9777C77.731 53.6309 80.2299 52.991 80.3183 53.3378Z" fill="white"/>
</g>
<path d="M41.1549 22.8691C38.8987 25.2759 36.2782 28.3114 32.9904 35.1147C32.7317 34.8185 32.4773 34.4815 32.2334 34.112C30.514 31.5386 29.1317 27.3762 28.5842 23.8146C28.242 21.598 28.2201 19.615 28.6416 18.3901C29.6164 15.5499 40.5556 21.4952 41.1549 22.8691Z" fill="#F17E80"/>
<path d="M41.1549 22.8691C38.8987 25.2759 36.2782 28.3114 32.9904 35.1147C32.7317 34.8185 32.4773 34.4815 32.2334 34.112C32.222 31.5078 33.8926 28.465 34.4007 26.197C35.4553 21.4916 31.6773 19.1377 30.4541 19.7676C29.7292 20.1413 28.9096 22.6977 28.5842 23.8146C28.242 21.598 28.2201 19.615 28.6416 18.3901C29.6164 15.5499 40.5556 21.4952 41.1549 22.8691Z" fill="#FF5C64"/>
<path d="M32.9908 35.8723C32.7737 35.8723 32.5651 35.7787 32.4202 35.6125C29.1157 31.816 26.5959 22.021 27.9262 18.1441C28.0801 17.6953 28.5475 16.9338 29.9461 16.8774C33.2499 16.7516 41.1729 21.018 41.8477 22.5666C41.9688 22.8443 41.9129 23.1675 41.7059 23.3883C39.4008 25.8459 36.8817 28.8011 33.6719 35.4446C33.5613 35.6737 33.3431 35.8319 33.0911 35.8657C33.0576 35.8701 33.0241 35.8723 32.9908 35.8723ZM30.1417 18.388C30.04 18.388 29.9438 18.3928 29.8525 18.4028C29.4214 18.4501 29.3733 18.5905 29.3574 18.6365V18.6366C28.3799 21.4842 30.1003 29.6009 32.8515 33.684C35.6925 28.0255 38.0134 25.157 40.1399 22.8484C38.6097 21.5462 32.7363 18.388 30.1417 18.388Z" fill="#262F6A"/>
<path d="M48.1631 68.4737C51.3127 67.7769 53.4009 65.1102 52.8273 62.5174C52.2537 59.9246 49.2355 58.3875 46.086 59.0842C42.9364 59.781 40.8482 62.4477 41.4218 65.0405C41.9954 67.6333 45.0136 69.1704 48.1631 68.4737Z" fill="#FF989D"/>
<path d="M96.121 51.9284C96.6883 54.5229 99.5117 56.1058 102.428 55.4657C102.651 55.4168 102.869 55.3561 103.079 55.2827C103.147 51.4049 101.836 48.0988 100.699 46.0113C100.591 46.0278 100.483 46.0478 100.374 46.0717C97.4578 46.7118 95.5538 49.334 96.121 51.9284Z" fill="#FF989D"/>
<path d="M63.0664 81.9333C54.8183 83.7597 45.1928 82.6788 38.3666 77.239C31.4294 71.6773 29.1209 62.3492 28.7677 53.8298C28.6349 48.1407 29.2479 42.2611 31.7063 37.0709C31.045 41.2743 30.55 45.3832 30.4138 49.5985C30.2936 54.4486 30.7226 59.3304 31.9737 64.025C32.7371 67.3517 34.2688 70.5221 36.4655 73.1333C43.0188 80.8934 53.5933 81.5892 63.0664 81.9333Z" fill="#262F6A"/>
<path d="M55.7507 13.528C61.2159 11.7135 67.1282 10.9863 72.8345 11.9593C74.7352 12.2598 76.6398 12.8171 78.4392 13.49C80.8945 14.3236 83.2248 15.6683 85.2409 17.3052C92.9334 23.4827 98.1398 35.361 100.084 43.4093C101.48 45.2741 102.455 47.376 103.141 49.5906C103.815 51.7881 104.063 54.1469 103.878 56.4403C103.408 61.62 100.353 66.2385 96.6264 69.6986C96.2751 70.0664 95.7266 70.4629 95.3481 70.8034C94.9805 71.1085 94.4276 71.5892 94.0258 71.8492L92.6567 72.829C91.8638 73.3638 90.9722 73.869 90.1641 74.3833C89.8282 74.5681 88.6481 75.166 88.3074 75.3482L87.5652 75.7327L86.8025 76.0723C82.7863 77.9204 78.4811 79.1656 74.1475 79.9993C76.1846 79.2619 78.3133 78.5223 80.3209 77.6965C81.3352 77.3103 82.34 76.832 83.3296 76.3997C84.5775 75.8799 85.7728 75.1848 86.9928 74.6044C87.6229 74.238 88.8202 73.548 89.4572 73.1819C89.6548 73.0623 90.2651 72.6476 90.4754 72.5171C96.1477 68.8789 101.54 63.3011 102.175 56.2975C102.462 52.0882 101.112 47.7304 98.5785 44.3621C97.9108 41.8972 97.1154 39.4623 96.1953 37.0795C93.0774 29.1555 88.7217 20.9815 81.2062 16.5049C79.0916 15.3169 76.7233 14.4854 74.3726 13.8706C72.905 13.5186 71.3333 13.2649 69.8301 13.145C65.1493 12.7837 60.5568 13.5173 55.9241 14.2655C55.717 14.2975 55.5231 14.1553 55.4911 13.9478C55.4621 13.7603 55.5758 13.5835 55.7507 13.528Z" fill="#262F6A"/>
<path d="M44.3426 19.2552C52.4101 13.5895 59.1139 13.6943 67.5231 9.87244C69.6217 8.91868 73.2284 6.35684 73.2284 6.35684C73.2284 6.35684 74.3023 10.3964 73.8054 12.8247C78.8246 12.3914 80.7106 14.4999 87.6941 14.2118C86.5364 16.2872 84.0101 19.1083 80.1424 19.0416L44.3426 19.2552Z" fill="white"/>
<path d="M44.3422 19.256L56.3519 19.1837C55.8827 17.379 55.2765 15.7005 54.6478 14.2424C51.3031 15.3361 47.9599 16.7159 44.3422 19.256Z" fill="#FFAC40"/>
<path d="M44.3426 19.2552C50.5982 13.4948 59.4537 12.5268 66.9297 9.16454C68.9846 8.23523 70.8779 6.9402 72.7906 5.73891C73.1355 5.48378 73.6301 5.5651 73.8619 5.93048C74.1171 6.53266 74.1796 7.19275 74.322 7.81427C74.619 9.52248 74.8629 11.233 74.5468 12.9767L73.7405 12.0698C75.546 11.8083 77.4369 11.9791 79.2101 12.3662L80.921 12.7277C83.1552 13.2224 85.3763 13.4208 87.66 13.3817C88.299 13.3229 88.7612 14.0755 88.4185 14.6169C86.7997 17.4617 83.5351 19.8958 80.1423 19.0416C83.1069 18.4549 85.5754 16.4387 86.9698 13.8067L87.7283 15.0418C85.3436 15.2144 82.8753 15.03 80.5447 14.5125C78.2741 13.9926 76.1759 13.4585 73.8651 13.5799C73.4458 13.6099 73.0818 13.2939 73.0518 12.8741C73.102 12.3315 73.2069 11.7971 73.1786 11.2064C73.1516 9.65331 72.8695 8.05755 72.4972 6.55171L73.6663 6.97477C72.5928 7.79302 71.5011 8.55697 70.36 9.28363C66.9603 11.483 62.9275 12.6504 59.0939 13.7415C53.9487 15.1038 49.0023 16.6167 44.3426 19.2552Z" fill="#262F6A"/>
<path d="M73.8055 12.8246C72.0835 13.1362 70.1008 14.1675 68.7144 14.2494L73.8055 12.8246Z" fill="white"/>
<path d="M73.94 13.5702C72.2587 13.5986 70.4435 14.323 68.7144 14.2494C69.1509 14.1551 69.5576 13.9893 69.9574 13.8081C71.2182 13.2306 72.2893 12.5328 73.6709 12.079L73.94 13.5702Z" fill="#262F6A"/>
<path d="M80.1376 56.8571C80.2162 57.8646 79.6605 59.5576 79.5506 59.5743C79.4773 59.5856 79.1154 58.1048 78.6112 57.1434" fill="#262F6A"/>
<path d="M63.9233 57.2322C67.5676 56.3555 69.6993 52.2254 68.6846 48.0074C67.6699 43.7894 63.893 41.0807 60.2487 41.9574C56.6044 42.8341 54.4727 46.9641 55.4874 51.1822C56.5021 55.4002 60.279 58.1088 63.9233 57.2322Z" fill="#262F6A"/>
<path d="M64.202 51.4639C65.39 51.1779 66.059 49.7241 65.6962 48.2166C65.3334 46.7092 64.0761 45.719 62.8881 46.0049C61.7 46.2909 61.031 47.7447 61.3938 49.2522C61.7567 50.7596 63.0139 51.7498 64.202 51.4639Z" fill="white"/>
<g opacity="0.2">
<path d="M59.7275 53.973C60.3855 53.8146 60.7198 52.8591 60.4742 51.839C60.2285 50.8188 59.496 50.1202 58.838 50.2787C58.18 50.4371 57.8457 51.3926 58.0913 52.4127C58.337 53.4329 59.0695 54.1314 59.7275 53.973Z" fill="white"/>
</g>
<path d="M89.0771 50.7988C92.2789 50.0525 94.1742 46.4433 93.3104 42.7374C92.4466 39.0316 89.1508 36.6323 85.9491 37.3786C82.7473 38.1249 80.852 41.7341 81.7157 45.44C82.5795 49.1458 85.8753 51.545 89.0771 50.7988Z" fill="#262F6A"/>
<path d="M89.3673 45.7461C90.4112 45.5027 91.007 44.2316 90.6982 42.9071C90.3893 41.5826 89.2927 40.7061 88.2488 40.9496C87.2049 41.193 86.609 42.4641 86.9179 43.7886C87.2267 45.1132 88.3234 45.9896 89.3673 45.7461Z" fill="white"/>
<g opacity="0.2">
<path d="M85.4283 47.9168C86.0064 47.7819 86.3056 46.9459 86.0964 46.0495C85.8873 45.1531 85.2491 44.5358 84.671 44.6706C84.0928 44.8055 83.7936 45.6415 84.0028 46.5379C84.2119 47.4343 84.8501 48.0517 85.4283 47.9168Z" fill="white"/>
</g>
<path d="M81.1006 65.6295C81.0636 65.6542 81.024 65.6743 80.9821 65.6944C80.1969 66.0578 79.4154 66.2201 78.6392 66.1648C77.9246 66.1124 77.4233 65.3586 77.5637 64.5862C77.6043 64.3604 77.6522 64.1391 77.7073 63.9224C77.805 63.5483 77.9221 63.1903 78.0606 62.841C78.4961 61.7408 79.8183 61.4917 80.5757 62.3656C80.9496 62.7968 81.2757 63.2932 81.5633 63.8428C81.896 64.4808 81.669 65.2819 81.1006 65.6295Z" fill="#262F6A"/>
<path d="M81.1006 65.6295C81.0636 65.6542 81.024 65.6743 80.9821 65.6944C80.1969 66.0578 79.4154 66.2201 78.6392 66.1648C77.9246 66.1124 77.4233 65.3586 77.5637 64.5862C77.6043 64.3604 77.6522 64.1391 77.7073 63.9224C77.8903 63.8839 78.0808 63.8594 78.2767 63.8537C79.5484 63.8165 80.6538 64.5573 81.1006 65.6295Z" fill="#F96469"/>
<path d="M78.9356 66.6252C78.8257 66.6252 78.7163 66.6212 78.607 66.6134C78.1625 66.5814 77.7601 66.3596 77.4735 65.989C77.1528 65.5744 77.0245 65.0336 77.1211 64.5053C77.2382 63.8676 77.4133 63.252 77.6413 62.6759V62.6757C77.9085 62.0015 78.4708 61.5302 79.1459 61.415C79.7996 61.3032 80.4616 61.5481 80.9147 62.0702C81.2952 62.5091 81.6473 63.0352 81.9607 63.6342C82.1922 64.0763 82.2316 64.6041 82.0692 65.0825C81.9144 65.5386 81.5867 65.9107 81.1704 66.1034C80.4208 66.4502 79.6705 66.6252 78.9356 66.6252ZM78.4778 63.0077C78.2715 63.5293 78.1129 64.0881 78.0063 64.6682C77.9565 64.9405 78.0232 65.2281 78.1851 65.4373C78.3129 65.6027 78.4857 65.7013 78.6713 65.7146C79.3552 65.764 80.0706 65.6193 80.7929 65.2854C80.9864 65.1958 81.1413 65.0161 81.2172 64.7924C81.3006 64.5466 81.2812 64.2768 81.1636 64.0523C80.8826 63.5154 80.57 63.0472 80.2352 62.661C79.9863 62.3743 79.6456 62.2434 79.297 62.3032C78.9291 62.3661 78.6303 62.6228 78.4778 63.0077Z" fill="#262F6A"/>
<path d="M87.2812 91.5549C86.5978 89.6987 86.7947 87.3777 85.5015 84.5052L87.2812 91.5549Z" fill="#FC9C24"/>
<path d="M87.2812 91.5549C86.7601 90.4529 86.5325 89.2127 86.1899 88.0542C85.8613 86.8952 85.4208 85.8014 84.842 84.8028L86.161 84.2075C86.5759 85.4291 86.8043 86.6898 86.9013 87.9235C87.0123 89.1483 86.986 90.3587 87.2812 91.5549Z" fill="#262F6A"/>
<path d="M89.5829 86.3261C94.981 85.6974 99.5398 78.832 99.3072 74.905C99.2833 74.4954 99.2242 74.0771 99.1296 73.654C98.2873 69.7398 94.6697 65.3413 89.8999 63.3365C86.4427 61.8831 85.1014 63.6308 84.9242 64.5197C84.4616 66.8562 87.755 68.2635 88.3831 68.9805C88.3831 68.9805 85.4913 71.2635 84.1278 74.1051C83.4478 75.5185 83.0503 77.7397 84.0026 79.4762C84.0039 79.4795 84.0051 79.4827 84.0081 79.4853C84.2129 79.8558 84.4798 80.2038 84.8194 80.5176C84.9201 80.6128 85.0284 80.7031 85.1431 80.791C85.141 80.8143 85.1388 80.8375 85.1374 80.8624C84.9692 83.3117 86.3146 86.7067 89.5829 86.3261Z" fill="white"/>
<path d="M87.4062 84.6453C87.9607 85.1742 88.633 85.3837 89.4626 85.2883C90.0129 85.224 90.5751 85.0801 91.1338 84.8609C94.9822 83.3512 98.2101 78.394 98.2707 75.3023C96.2643 78.5494 92.3838 81.8152 87.8286 81.9243C87.3643 81.9362 86.8683 82.0485 86.1847 81.6863C86.2621 82.739 86.6389 83.9118 87.4062 84.6453Z" fill="#EEEEEE"/>
<path d="M84.008 79.4854C84.2128 79.8559 84.4797 80.2039 84.8193 80.5177C84.5694 80.2323 84.3001 79.8927 84.008 79.4854Z" fill="#F3BCE2"/>
<path d="M96.612 81.7811C97.5899 79.8555 98.4599 77.9143 98.6421 75.8039C98.7299 74.4551 98.3356 73.152 97.8034 71.9211C96.6195 69.4221 94.7117 67.2739 92.4444 65.6989C90.9566 64.6621 86.7957 62.1945 85.7112 64.6637C85.3802 66.3991 87.8575 67.4464 88.8955 68.5301C89.1581 68.8201 89.115 69.2786 88.8054 69.5165C88.3915 69.8541 87.9612 70.2469 87.5637 70.6409C86.3934 71.8151 85.308 73.1306 84.632 74.6488C83.8442 76.4958 83.8405 78.9544 85.5553 80.2485C85.7388 80.4042 85.8184 80.6231 85.8222 80.8473C85.9486 82.5813 86.2741 84.5749 87.7673 85.6629C88.3066 86.0448 88.9171 86.236 89.5823 86.3259C89.2556 86.4545 88.9021 86.5287 88.5353 86.5443C86.5334 86.629 84.9855 84.8116 84.5598 82.9938C84.3799 82.2592 84.3241 81.4908 84.4635 80.7366L84.7303 81.3353C82.5072 79.6938 82.3413 76.4684 83.3771 74.1157C84.1258 72.4207 85.3092 70.9701 86.6045 69.6708C87.0377 69.2431 87.4697 68.8454 87.9614 68.4446L87.8713 69.4309C87.7538 69.3086 87.2901 69.0206 87.1167 68.9018C86.1054 68.2284 85.1525 67.6103 84.4832 66.4435C83.7105 65.1102 84.1105 63.3297 85.4482 62.5265C88.0338 60.9924 91.2191 62.9029 93.3935 64.3469C95.2481 65.6833 96.8638 67.352 98.0735 69.3007C99.2636 71.2636 100.214 73.6086 99.9041 75.9464C99.5264 78.214 98.2685 80.2434 96.612 81.7811Z" fill="#262F6A"/>
<path d="M90.9698 69.7803C90.1138 69.4393 88.8498 69.1905 88.222 70.0148L87.3935 68.9308C88.6286 68.2301 90.0733 68.8561 90.9698 69.7803Z" fill="#262F6A"/>
</svg>
